%TF.GenerationSoftware,KiCad,Pcbnew,(6.0.0-0)*%
%TF.CreationDate,2022-02-15T14:33:39+00:00*%
%TF.ProjectId,waffles-1u,77616666-6c65-4732-9d31-752e6b696361,rev?*%
%TF.SameCoordinates,Original*%
%TF.FileFunction,Legend,Bot*%
%TF.FilePolarity,Positive*%
%FSLAX46Y46*%
G04 Gerber Fmt 4.6, Leading zero omitted, Abs format (unit mm)*
G04 Created by KiCad (PCBNEW (6.0.0-0)) date 2022-02-15 14:33:39*
%MOMM*%
%LPD*%
G01*
G04 APERTURE LIST*
%ADD10C,0.010000*%
G04 APERTURE END LIST*
D10*
%TO.C,Ref\u002A\u002A*%
X140189145Y-91589434D02*
X140096729Y-91597570D01*
X140096729Y-91597570D02*
X140006821Y-91610108D01*
X140006821Y-91610108D02*
X139931990Y-91625240D01*
X139931990Y-91625240D02*
X139884803Y-91641158D01*
X139884803Y-91641158D02*
X139880498Y-91643767D01*
X139880498Y-91643767D02*
X139834011Y-91666941D01*
X139834011Y-91666941D02*
X139805599Y-91672834D01*
X139805599Y-91672834D02*
X139759942Y-91684121D01*
X139759942Y-91684121D02*
X139694972Y-91712934D01*
X139694972Y-91712934D02*
X139625468Y-91751699D01*
X139625468Y-91751699D02*
X139566207Y-91792844D01*
X139566207Y-91792844D02*
X139557987Y-91799728D01*
X139557987Y-91799728D02*
X139519380Y-91829759D01*
X139519380Y-91829759D02*
X139495393Y-91842167D01*
X139495393Y-91842167D02*
X139474621Y-91856316D01*
X139474621Y-91856316D02*
X139435036Y-91892335D01*
X139435036Y-91892335D02*
X139386094Y-91940579D01*
X139386094Y-91940579D02*
X139337248Y-91991402D01*
X139337248Y-91991402D02*
X139297953Y-92035161D01*
X139297953Y-92035161D02*
X139277662Y-92062212D01*
X139277662Y-92062212D02*
X139276666Y-92065295D01*
X139276666Y-92065295D02*
X139264257Y-92089906D01*
X139264257Y-92089906D02*
X139250208Y-92107528D01*
X139250208Y-92107528D02*
X139203920Y-92166481D01*
X139203920Y-92166481D02*
X139159765Y-92234660D01*
X139159765Y-92234660D02*
X139125296Y-92299038D01*
X139125296Y-92299038D02*
X139108065Y-92346589D01*
X139108065Y-92346589D02*
X139107333Y-92353975D01*
X139107333Y-92353975D02*
X139099240Y-92386629D01*
X139099240Y-92386629D02*
X139079532Y-92437217D01*
X139079532Y-92437217D02*
X139077308Y-92442218D01*
X139077308Y-92442218D02*
X139047424Y-92540247D01*
X139047424Y-92540247D02*
X139029404Y-92667049D01*
X139029404Y-92667049D02*
X139023047Y-92810815D01*
X139023047Y-92810815D02*
X139028153Y-92959741D01*
X139028153Y-92959741D02*
X139044521Y-93102020D01*
X139044521Y-93102020D02*
X139071951Y-93225846D01*
X139071951Y-93225846D02*
X139091551Y-93281500D01*
X139091551Y-93281500D02*
X139121694Y-93353372D01*
X139121694Y-93353372D02*
X139150992Y-93423410D01*
X139150992Y-93423410D02*
X139151395Y-93424375D01*
X139151395Y-93424375D02*
X139174688Y-93470098D01*
X139174688Y-93470098D02*
X139194430Y-93492662D01*
X139194430Y-93492662D02*
X139196640Y-93493167D01*
X139196640Y-93493167D02*
X139211695Y-93510170D01*
X139211695Y-93510170D02*
X139213166Y-93522053D01*
X139213166Y-93522053D02*
X139227276Y-93549716D01*
X139227276Y-93549716D02*
X139264367Y-93597643D01*
X139264367Y-93597643D02*
X139316584Y-93657539D01*
X139316584Y-93657539D02*
X139376072Y-93721106D01*
X139376072Y-93721106D02*
X139434974Y-93780047D01*
X139434974Y-93780047D02*
X139485436Y-93826066D01*
X139485436Y-93826066D02*
X139519601Y-93850864D01*
X139519601Y-93850864D02*
X139526510Y-93853000D01*
X139526510Y-93853000D02*
X139550279Y-93866620D01*
X139550279Y-93866620D02*
X139551833Y-93873764D01*
X139551833Y-93873764D02*
X139569757Y-93893988D01*
X139569757Y-93893988D02*
X139603218Y-93907424D01*
X139603218Y-93907424D02*
X139647123Y-93928339D01*
X139647123Y-93928339D02*
X139666054Y-93950160D01*
X139666054Y-93950160D02*
X139693915Y-93974015D01*
X139693915Y-93974015D02*
X139725794Y-93980673D01*
X139725794Y-93980673D02*
X139781739Y-93994029D01*
X139781739Y-93994029D02*
X139815170Y-94012423D01*
X139815170Y-94012423D02*
X139866330Y-94037394D01*
X139866330Y-94037394D02*
X139900895Y-94043500D01*
X139900895Y-94043500D02*
X139950043Y-94055383D01*
X139950043Y-94055383D02*
X139971870Y-94069837D01*
X139971870Y-94069837D02*
X140002049Y-94080055D01*
X140002049Y-94080055D02*
X140064163Y-94088917D01*
X140064163Y-94088917D02*
X140147822Y-94095979D01*
X140147822Y-94095979D02*
X140242639Y-94100800D01*
X140242639Y-94100800D02*
X140338224Y-94102935D01*
X140338224Y-94102935D02*
X140424189Y-94101943D01*
X140424189Y-94101943D02*
X140490144Y-94097381D01*
X140490144Y-94097381D02*
X140514916Y-94092983D01*
X140514916Y-94092983D02*
X140559691Y-94074761D01*
X140559691Y-94074761D02*
X140577358Y-94062612D01*
X140577358Y-94062612D02*
X140612852Y-94047536D01*
X140612852Y-94047536D02*
X140648176Y-94043500D01*
X140648176Y-94043500D02*
X140702759Y-94033679D01*
X140702759Y-94033679D02*
X140777640Y-94002383D01*
X140777640Y-94002383D02*
X140864166Y-93955776D01*
X140864166Y-93955776D02*
X140909157Y-93932716D01*
X140909157Y-93932716D02*
X140943541Y-93916974D01*
X140943541Y-93916974D02*
X140980094Y-93893344D01*
X140980094Y-93893344D02*
X140991166Y-93874691D01*
X140991166Y-93874691D02*
X141008201Y-93855217D01*
X141008201Y-93855217D02*
X141021536Y-93853000D01*
X141021536Y-93853000D02*
X141051311Y-93838340D01*
X141051311Y-93838340D02*
X141099009Y-93800474D01*
X141099009Y-93800474D02*
X141155383Y-93748572D01*
X141155383Y-93748572D02*
X141211184Y-93691803D01*
X141211184Y-93691803D02*
X141257163Y-93639337D01*
X141257163Y-93639337D02*
X141284071Y-93600344D01*
X141284071Y-93600344D02*
X141287500Y-93589301D01*
X141287500Y-93589301D02*
X141304548Y-93557870D01*
X141304548Y-93557870D02*
X141319250Y-93549012D01*
X141319250Y-93549012D02*
X141347407Y-93520725D01*
X141347407Y-93520725D02*
X141351000Y-93504414D01*
X141351000Y-93504414D02*
X141362015Y-93475820D01*
X141362015Y-93475820D02*
X141371763Y-93472000D01*
X141371763Y-93472000D02*
X141391172Y-93453904D01*
X141391172Y-93453904D02*
X141406671Y-93413792D01*
X141406671Y-93413792D02*
X141428009Y-93353681D01*
X141428009Y-93353681D02*
X141449408Y-93313832D01*
X141449408Y-93313832D02*
X141472583Y-93261694D01*
X141472583Y-93261694D02*
X141478000Y-93228107D01*
X141478000Y-93228107D02*
X141490127Y-93179064D01*
X141490127Y-93179064D02*
X141504458Y-93157675D01*
X141504458Y-93157675D02*
X141516467Y-93128771D01*
X141516467Y-93128771D02*
X141524694Y-93067784D01*
X141524694Y-93067784D02*
X141529417Y-92971326D01*
X141529417Y-92971326D02*
X141530916Y-92837000D01*
X141530916Y-92837000D02*
X141529397Y-92701939D01*
X141529397Y-92701939D02*
X141524653Y-92605718D01*
X141524653Y-92605718D02*
X141516403Y-92544947D01*
X141516403Y-92544947D02*
X141504458Y-92516325D01*
X141504458Y-92516325D02*
X141482366Y-92474083D01*
X141482366Y-92474083D02*
X141478000Y-92445229D01*
X141478000Y-92445229D02*
X141465367Y-92392660D01*
X141465367Y-92392660D02*
X141446923Y-92359504D01*
X141446923Y-92359504D02*
X141421876Y-92311726D01*
X141421876Y-92311726D02*
X141415173Y-92280711D01*
X141415173Y-92280711D02*
X141398954Y-92242254D01*
X141398954Y-92242254D02*
X141382750Y-92230821D01*
X141382750Y-92230821D02*
X141355531Y-92201850D01*
X141355531Y-92201850D02*
X141351000Y-92180575D01*
X141351000Y-92180575D02*
X141336866Y-92152409D01*
X141336866Y-92152409D02*
X141299269Y-92102832D01*
X141299269Y-92102832D02*
X141245415Y-92039614D01*
X141245415Y-92039614D02*
X141182510Y-91970524D01*
X141182510Y-91970524D02*
X141117761Y-91903331D01*
X141117761Y-91903331D02*
X141058375Y-91845805D01*
X141058375Y-91845805D02*
X141011558Y-91805714D01*
X141011558Y-91805714D02*
X140991166Y-91792635D01*
X140991166Y-91792635D02*
X140954449Y-91773294D01*
X140954449Y-91773294D02*
X140899177Y-91741286D01*
X140899177Y-91741286D02*
X140874750Y-91726524D01*
X140874750Y-91726524D02*
X140813839Y-91694766D01*
X140813839Y-91694766D02*
X140760250Y-91675906D01*
X140760250Y-91675906D02*
X140745050Y-91673752D01*
X140745050Y-91673752D02*
X140696555Y-91659607D01*
X140696555Y-91659607D02*
X140675018Y-91642712D01*
X140675018Y-91642712D02*
X140640696Y-91626041D01*
X140640696Y-91626041D02*
X140570966Y-91611151D01*
X140570966Y-91611151D02*
X140472748Y-91598987D01*
X140472748Y-91598987D02*
X140352959Y-91590498D01*
X140352959Y-91590498D02*
X140271500Y-91587509D01*
X140271500Y-91587509D02*
X140189145Y-91589434D01*
X140189145Y-91589434D02*
X140189145Y-91589434D01*
G36*
X140352959Y-91590498D02*
G01*
X140472748Y-91598987D01*
X140570966Y-91611151D01*
X140640696Y-91626041D01*
X140675018Y-91642712D01*
X140696555Y-91659607D01*
X140745050Y-91673752D01*
X140760250Y-91675906D01*
X140813839Y-91694766D01*
X140874750Y-91726524D01*
X140899177Y-91741286D01*
X140954449Y-91773294D01*
X140991166Y-91792635D01*
X141011558Y-91805714D01*
X141058375Y-91845805D01*
X141117761Y-91903331D01*
X141182510Y-91970524D01*
X141245415Y-92039614D01*
X141299269Y-92102832D01*
X141336866Y-92152409D01*
X141351000Y-92180575D01*
X141355531Y-92201850D01*
X141382750Y-92230821D01*
X141398954Y-92242254D01*
X141415173Y-92280711D01*
X141421876Y-92311726D01*
X141446923Y-92359504D01*
X141465367Y-92392660D01*
X141478000Y-92445229D01*
X141482366Y-92474083D01*
X141504458Y-92516325D01*
X141516403Y-92544947D01*
X141524653Y-92605718D01*
X141529397Y-92701939D01*
X141530916Y-92837000D01*
X141529417Y-92971326D01*
X141524694Y-93067784D01*
X141516467Y-93128771D01*
X141504458Y-93157675D01*
X141490127Y-93179064D01*
X141478000Y-93228107D01*
X141472583Y-93261694D01*
X141449408Y-93313832D01*
X141428009Y-93353681D01*
X141406671Y-93413792D01*
X141391172Y-93453904D01*
X141371763Y-93472000D01*
X141362015Y-93475820D01*
X141351000Y-93504414D01*
X141347407Y-93520725D01*
X141319250Y-93549012D01*
X141304548Y-93557870D01*
X141287500Y-93589301D01*
X141284071Y-93600344D01*
X141257163Y-93639337D01*
X141211184Y-93691803D01*
X141155383Y-93748572D01*
X141099009Y-93800474D01*
X141051311Y-93838340D01*
X141021536Y-93853000D01*
X141008201Y-93855217D01*
X140991166Y-93874691D01*
X140980094Y-93893344D01*
X140943541Y-93916974D01*
X140909157Y-93932716D01*
X140864166Y-93955776D01*
X140777640Y-94002383D01*
X140702759Y-94033679D01*
X140648176Y-94043500D01*
X140612852Y-94047536D01*
X140577358Y-94062612D01*
X140559691Y-94074761D01*
X140514916Y-94092983D01*
X140490144Y-94097381D01*
X140424189Y-94101943D01*
X140338224Y-94102935D01*
X140242639Y-94100800D01*
X140147822Y-94095979D01*
X140064163Y-94088917D01*
X140002049Y-94080055D01*
X139971870Y-94069837D01*
X139950043Y-94055383D01*
X139900895Y-94043500D01*
X139866330Y-94037394D01*
X139815170Y-94012423D01*
X139781739Y-93994029D01*
X139725794Y-93980673D01*
X139693915Y-93974015D01*
X139666054Y-93950160D01*
X139647123Y-93928339D01*
X139603218Y-93907424D01*
X139569757Y-93893988D01*
X139551833Y-93873764D01*
X139550279Y-93866620D01*
X139526510Y-93853000D01*
X139519601Y-93850864D01*
X139485436Y-93826066D01*
X139434974Y-93780047D01*
X139376072Y-93721106D01*
X139316584Y-93657539D01*
X139264367Y-93597643D01*
X139227276Y-93549716D01*
X139213166Y-93522053D01*
X139211695Y-93510170D01*
X139196640Y-93493167D01*
X139194430Y-93492662D01*
X139174688Y-93470098D01*
X139151395Y-93424375D01*
X139150992Y-93423410D01*
X139121694Y-93353372D01*
X139091551Y-93281500D01*
X139071951Y-93225846D01*
X139044521Y-93102020D01*
X139028153Y-92959741D01*
X139023047Y-92810815D01*
X139029404Y-92667049D01*
X139047424Y-92540247D01*
X139077308Y-92442218D01*
X139079532Y-92437217D01*
X139099240Y-92386629D01*
X139107333Y-92353975D01*
X139108065Y-92346589D01*
X139125296Y-92299038D01*
X139159765Y-92234660D01*
X139203920Y-92166481D01*
X139250208Y-92107528D01*
X139264257Y-92089906D01*
X139276666Y-92065295D01*
X139277662Y-92062212D01*
X139297953Y-92035161D01*
X139337248Y-91991402D01*
X139386094Y-91940579D01*
X139435036Y-91892335D01*
X139474621Y-91856316D01*
X139495393Y-91842167D01*
X139519380Y-91829759D01*
X139557987Y-91799728D01*
X139566207Y-91792844D01*
X139625468Y-91751699D01*
X139694972Y-91712934D01*
X139759942Y-91684121D01*
X139805599Y-91672834D01*
X139834011Y-91666941D01*
X139880498Y-91643767D01*
X139884803Y-91641158D01*
X139931990Y-91625240D01*
X140006821Y-91610108D01*
X140096729Y-91597570D01*
X140189145Y-91589434D01*
X140271500Y-91587509D01*
X140352959Y-91590498D01*
G37*
X140352959Y-91590498D02*
X140472748Y-91598987D01*
X140570966Y-91611151D01*
X140640696Y-91626041D01*
X140675018Y-91642712D01*
X140696555Y-91659607D01*
X140745050Y-91673752D01*
X140760250Y-91675906D01*
X140813839Y-91694766D01*
X140874750Y-91726524D01*
X140899177Y-91741286D01*
X140954449Y-91773294D01*
X140991166Y-91792635D01*
X141011558Y-91805714D01*
X141058375Y-91845805D01*
X141117761Y-91903331D01*
X141182510Y-91970524D01*
X141245415Y-92039614D01*
X141299269Y-92102832D01*
X141336866Y-92152409D01*
X141351000Y-92180575D01*
X141355531Y-92201850D01*
X141382750Y-92230821D01*
X141398954Y-92242254D01*
X141415173Y-92280711D01*
X141421876Y-92311726D01*
X141446923Y-92359504D01*
X141465367Y-92392660D01*
X141478000Y-92445229D01*
X141482366Y-92474083D01*
X141504458Y-92516325D01*
X141516403Y-92544947D01*
X141524653Y-92605718D01*
X141529397Y-92701939D01*
X141530916Y-92837000D01*
X141529417Y-92971326D01*
X141524694Y-93067784D01*
X141516467Y-93128771D01*
X141504458Y-93157675D01*
X141490127Y-93179064D01*
X141478000Y-93228107D01*
X141472583Y-93261694D01*
X141449408Y-93313832D01*
X141428009Y-93353681D01*
X141406671Y-93413792D01*
X141391172Y-93453904D01*
X141371763Y-93472000D01*
X141362015Y-93475820D01*
X141351000Y-93504414D01*
X141347407Y-93520725D01*
X141319250Y-93549012D01*
X141304548Y-93557870D01*
X141287500Y-93589301D01*
X141284071Y-93600344D01*
X141257163Y-93639337D01*
X141211184Y-93691803D01*
X141155383Y-93748572D01*
X141099009Y-93800474D01*
X141051311Y-93838340D01*
X141021536Y-93853000D01*
X141008201Y-93855217D01*
X140991166Y-93874691D01*
X140980094Y-93893344D01*
X140943541Y-93916974D01*
X140909157Y-93932716D01*
X140864166Y-93955776D01*
X140777640Y-94002383D01*
X140702759Y-94033679D01*
X140648176Y-94043500D01*
X140612852Y-94047536D01*
X140577358Y-94062612D01*
X140559691Y-94074761D01*
X140514916Y-94092983D01*
X140490144Y-94097381D01*
X140424189Y-94101943D01*
X140338224Y-94102935D01*
X140242639Y-94100800D01*
X140147822Y-94095979D01*
X140064163Y-94088917D01*
X140002049Y-94080055D01*
X139971870Y-94069837D01*
X139950043Y-94055383D01*
X139900895Y-94043500D01*
X139866330Y-94037394D01*
X139815170Y-94012423D01*
X139781739Y-93994029D01*
X139725794Y-93980673D01*
X139693915Y-93974015D01*
X139666054Y-93950160D01*
X139647123Y-93928339D01*
X139603218Y-93907424D01*
X139569757Y-93893988D01*
X139551833Y-93873764D01*
X139550279Y-93866620D01*
X139526510Y-93853000D01*
X139519601Y-93850864D01*
X139485436Y-93826066D01*
X139434974Y-93780047D01*
X139376072Y-93721106D01*
X139316584Y-93657539D01*
X139264367Y-93597643D01*
X139227276Y-93549716D01*
X139213166Y-93522053D01*
X139211695Y-93510170D01*
X139196640Y-93493167D01*
X139194430Y-93492662D01*
X139174688Y-93470098D01*
X139151395Y-93424375D01*
X139150992Y-93423410D01*
X139121694Y-93353372D01*
X139091551Y-93281500D01*
X139071951Y-93225846D01*
X139044521Y-93102020D01*
X139028153Y-92959741D01*
X139023047Y-92810815D01*
X139029404Y-92667049D01*
X139047424Y-92540247D01*
X139077308Y-92442218D01*
X139079532Y-92437217D01*
X139099240Y-92386629D01*
X139107333Y-92353975D01*
X139108065Y-92346589D01*
X139125296Y-92299038D01*
X139159765Y-92234660D01*
X139203920Y-92166481D01*
X139250208Y-92107528D01*
X139264257Y-92089906D01*
X139276666Y-92065295D01*
X139277662Y-92062212D01*
X139297953Y-92035161D01*
X139337248Y-91991402D01*
X139386094Y-91940579D01*
X139435036Y-91892335D01*
X139474621Y-91856316D01*
X139495393Y-91842167D01*
X139519380Y-91829759D01*
X139557987Y-91799728D01*
X139566207Y-91792844D01*
X139625468Y-91751699D01*
X139694972Y-91712934D01*
X139759942Y-91684121D01*
X139805599Y-91672834D01*
X139834011Y-91666941D01*
X139880498Y-91643767D01*
X139884803Y-91641158D01*
X139931990Y-91625240D01*
X140006821Y-91610108D01*
X140096729Y-91597570D01*
X140189145Y-91589434D01*
X140271500Y-91587509D01*
X140352959Y-91590498D01*
X130621832Y-105142853D02*
X130497395Y-105154774D01*
X130497395Y-105154774D02*
X130370001Y-105173250D01*
X130370001Y-105173250D02*
X130248804Y-105196538D01*
X130248804Y-105196538D02*
X130142954Y-105222890D01*
X130142954Y-105222890D02*
X130061603Y-105250562D01*
X130061603Y-105250562D02*
X130015553Y-105276302D01*
X130015553Y-105276302D02*
X129979294Y-105290915D01*
X129979294Y-105290915D02*
X129950807Y-105293970D01*
X129950807Y-105293970D02*
X129898238Y-105306602D01*
X129898238Y-105306602D02*
X129865082Y-105325047D01*
X129865082Y-105325047D02*
X129817304Y-105350094D01*
X129817304Y-105350094D02*
X129786289Y-105356797D01*
X129786289Y-105356797D02*
X129747832Y-105373015D01*
X129747832Y-105373015D02*
X129736399Y-105389220D01*
X129736399Y-105389220D02*
X129712798Y-105417293D01*
X129712798Y-105417293D02*
X129700205Y-105420970D01*
X129700205Y-105420970D02*
X129671315Y-105432582D01*
X129671315Y-105432582D02*
X129618614Y-105463038D01*
X129618614Y-105463038D02*
X129552145Y-105505765D01*
X129552145Y-105505765D02*
X129481951Y-105554190D01*
X129481951Y-105554190D02*
X129418076Y-105601741D01*
X129418076Y-105601741D02*
X129392934Y-105622053D01*
X129392934Y-105622053D02*
X129285614Y-105720184D01*
X129285614Y-105720184D02*
X129175592Y-105834599D01*
X129175592Y-105834599D02*
X129077250Y-105949811D01*
X129077250Y-105949811D02*
X129029301Y-106013637D01*
X129029301Y-106013637D02*
X128994845Y-106061782D01*
X128994845Y-106061782D02*
X128970871Y-106093527D01*
X128970871Y-106093527D02*
X128966745Y-106098319D01*
X128966745Y-106098319D02*
X128950000Y-106124000D01*
X128950000Y-106124000D02*
X128920285Y-106177324D01*
X128920285Y-106177324D02*
X128883231Y-106247908D01*
X128883231Y-106247908D02*
X128852013Y-106309970D01*
X128852013Y-106309970D02*
X128823977Y-106366466D01*
X128823977Y-106366466D02*
X128791902Y-106430610D01*
X128791902Y-106430610D02*
X128790504Y-106433394D01*
X128790504Y-106433394D02*
X128766615Y-106489733D01*
X128766615Y-106489733D02*
X128754683Y-106535017D01*
X128754683Y-106535017D02*
X128754405Y-106539227D01*
X128754405Y-106539227D02*
X128741589Y-106583549D01*
X128741589Y-106583549D02*
X128722655Y-106615640D01*
X128722655Y-106615640D02*
X128702344Y-106663229D01*
X128702344Y-106663229D02*
X128691702Y-106728522D01*
X128691702Y-106728522D02*
X128691259Y-106742640D01*
X128691259Y-106742640D02*
X128683194Y-106821827D01*
X128683194Y-106821827D02*
X128663846Y-106903232D01*
X128663846Y-106903232D02*
X128660439Y-106913220D01*
X128660439Y-106913220D02*
X128644621Y-106983750D01*
X128644621Y-106983750D02*
X128634379Y-107083669D01*
X128634379Y-107083669D02*
X128629713Y-107200401D01*
X128629713Y-107200401D02*
X128630623Y-107321369D01*
X128630623Y-107321369D02*
X128637108Y-107433997D01*
X128637108Y-107433997D02*
X128649169Y-107525709D01*
X128649169Y-107525709D02*
X128660439Y-107569387D01*
X128660439Y-107569387D02*
X128680896Y-107648062D01*
X128680896Y-107648062D02*
X128691034Y-107729847D01*
X128691034Y-107729847D02*
X128691259Y-107739966D01*
X128691259Y-107739966D02*
X128699004Y-107805868D01*
X128699004Y-107805868D02*
X128717731Y-107859379D01*
X128717731Y-107859379D02*
X128722655Y-107866966D01*
X128722655Y-107866966D02*
X128747627Y-107913591D01*
X128747627Y-107913591D02*
X128754405Y-107943379D01*
X128754405Y-107943379D02*
X128764049Y-107987100D01*
X128764049Y-107987100D02*
X128785003Y-108038629D01*
X128785003Y-108038629D02*
X128812720Y-108096822D01*
X128812720Y-108096822D02*
X128845005Y-108168182D01*
X128845005Y-108168182D02*
X128853795Y-108188269D01*
X128853795Y-108188269D02*
X128879994Y-108241585D01*
X128879994Y-108241585D02*
X128901829Y-108273854D01*
X128901829Y-108273854D02*
X128908536Y-108278227D01*
X128908536Y-108278227D02*
X128922786Y-108295611D01*
X128922786Y-108295611D02*
X128924411Y-108309099D01*
X128924411Y-108309099D02*
X128938950Y-108349776D01*
X128938950Y-108349776D02*
X128978820Y-108412835D01*
X128978820Y-108412835D02*
X129038400Y-108491775D01*
X129038400Y-108491775D02*
X129112069Y-108580097D01*
X129112069Y-108580097D02*
X129194207Y-108671301D01*
X129194207Y-108671301D02*
X129279194Y-108758886D01*
X129279194Y-108758886D02*
X129361409Y-108836354D01*
X129361409Y-108836354D02*
X129428718Y-108892303D01*
X129428718Y-108892303D02*
X129485712Y-108936484D01*
X129485712Y-108936484D02*
X129536062Y-108976802D01*
X129536062Y-108976802D02*
X129542661Y-108982262D01*
X129542661Y-108982262D02*
X129581683Y-109009792D01*
X129581683Y-109009792D02*
X129605167Y-109019303D01*
X129605167Y-109019303D02*
X129631436Y-109030821D01*
X129631436Y-109030821D02*
X129678607Y-109060244D01*
X129678607Y-109060244D02*
X129710937Y-109082803D01*
X129710937Y-109082803D02*
X129766845Y-109119445D01*
X129766845Y-109119445D02*
X129812096Y-109142386D01*
X129812096Y-109142386D02*
X129827458Y-109146303D01*
X129827458Y-109146303D02*
X129869852Y-109156018D01*
X129869852Y-109156018D02*
X129893074Y-109166444D01*
X129893074Y-109166444D02*
X130040712Y-109232170D01*
X130040712Y-109232170D02*
X130212703Y-109279943D01*
X130212703Y-109279943D02*
X130412433Y-109310205D01*
X130412433Y-109310205D02*
X130643287Y-109323403D01*
X130643287Y-109323403D02*
X130908653Y-109319981D01*
X130908653Y-109319981D02*
X131019911Y-109314376D01*
X131019911Y-109314376D02*
X131191772Y-109297174D01*
X131191772Y-109297174D02*
X131327950Y-109267725D01*
X131327950Y-109267725D02*
X131369161Y-109253977D01*
X131369161Y-109253977D02*
X131444041Y-109227101D01*
X131444041Y-109227101D02*
X131509154Y-109205368D01*
X131509154Y-109205368D02*
X131543786Y-109195243D01*
X131543786Y-109195243D02*
X131580866Y-109179259D01*
X131580866Y-109179259D02*
X131591411Y-109165002D01*
X131591411Y-109165002D02*
X131608948Y-109149235D01*
X131608948Y-109149235D02*
X131629198Y-109146303D01*
X131629198Y-109146303D02*
X131661479Y-109135242D01*
X131661479Y-109135242D02*
X131720024Y-109105259D01*
X131720024Y-109105259D02*
X131796030Y-109061152D01*
X131796030Y-109061152D02*
X131867323Y-109016446D01*
X131867323Y-109016446D02*
X132036346Y-108893567D01*
X132036346Y-108893567D02*
X132197940Y-108751015D01*
X132197940Y-108751015D02*
X132344611Y-108596870D01*
X132344611Y-108596870D02*
X132468869Y-108439212D01*
X132468869Y-108439212D02*
X132563219Y-108286122D01*
X132563219Y-108286122D02*
X132584030Y-108243484D01*
X132584030Y-108243484D02*
X132609449Y-108201736D01*
X132609449Y-108201736D02*
X132627273Y-108184027D01*
X132627273Y-108184027D02*
X132646444Y-108153285D01*
X132646444Y-108153285D02*
X132649745Y-108130769D01*
X132649745Y-108130769D02*
X132658976Y-108085881D01*
X132658976Y-108085881D02*
X132681554Y-108028117D01*
X132681554Y-108028117D02*
X132685076Y-108020894D01*
X132685076Y-108020894D02*
X132713932Y-107962941D01*
X132713932Y-107962941D02*
X132737083Y-107915840D01*
X132737083Y-107915840D02*
X132738701Y-107912497D01*
X132738701Y-107912497D02*
X132753393Y-107870400D01*
X132753393Y-107870400D02*
X132770600Y-107804990D01*
X132770600Y-107804990D02*
X132779588Y-107764331D01*
X132779588Y-107764331D02*
X132796855Y-107680805D01*
X132796855Y-107680805D02*
X132814174Y-107598179D01*
X132814174Y-107598179D02*
X132820291Y-107569387D01*
X132820291Y-107569387D02*
X132827689Y-107513433D01*
X132827689Y-107513433D02*
X132833628Y-107427858D01*
X132833628Y-107427858D02*
X132837406Y-107325365D01*
X132837406Y-107325365D02*
X132838401Y-107241303D01*
X132838401Y-107241303D02*
X132836812Y-107134431D01*
X132836812Y-107134431D02*
X132832510Y-107034501D01*
X132832510Y-107034501D02*
X132826199Y-106954219D01*
X132826199Y-106954219D02*
X132820291Y-106913220D01*
X132820291Y-106913220D02*
X132804813Y-106839915D01*
X132804813Y-106839915D02*
X132786798Y-106753312D01*
X132786798Y-106753312D02*
X132779588Y-106718276D01*
X132779588Y-106718276D02*
X132763123Y-106647779D01*
X132763123Y-106647779D02*
X132746159Y-106590152D01*
X132746159Y-106590152D02*
X132738235Y-106570109D01*
X132738235Y-106570109D02*
X132717320Y-106525325D01*
X132717320Y-106525325D02*
X132690928Y-106465801D01*
X132690928Y-106465801D02*
X132687620Y-106458137D01*
X132687620Y-106458137D02*
X132649469Y-106373016D01*
X132649469Y-106373016D02*
X132607067Y-106283923D01*
X132607067Y-106283923D02*
X132567427Y-106205203D01*
X132567427Y-106205203D02*
X132537823Y-106151631D01*
X132537823Y-106151631D02*
X132486495Y-106074921D01*
X132486495Y-106074921D02*
X132421421Y-105988145D01*
X132421421Y-105988145D02*
X132348231Y-105897649D01*
X132348231Y-105897649D02*
X132272555Y-105809781D01*
X132272555Y-105809781D02*
X132200021Y-105730889D01*
X132200021Y-105730889D02*
X132136259Y-105667321D01*
X132136259Y-105667321D02*
X132086899Y-105625423D01*
X132086899Y-105625423D02*
X132058771Y-105611470D01*
X132058771Y-105611470D02*
X132036854Y-105597609D01*
X132036854Y-105597609D02*
X132035911Y-105592119D01*
X132035911Y-105592119D02*
X132017135Y-105569343D01*
X132017135Y-105569343D02*
X131961038Y-105527489D01*
X131961038Y-105527489D02*
X131867966Y-105466799D01*
X131867966Y-105466799D02*
X131771328Y-105407388D01*
X131771328Y-105407388D02*
X131698769Y-105367676D01*
X131698769Y-105367676D02*
X131621557Y-105331770D01*
X131621557Y-105331770D02*
X131553049Y-105305338D01*
X131553049Y-105305338D02*
X131506606Y-105294049D01*
X131506606Y-105294049D02*
X131504054Y-105293970D01*
X131504054Y-105293970D02*
X131471148Y-105284570D01*
X131471148Y-105284570D02*
X131464411Y-105272803D01*
X131464411Y-105272803D02*
X131446934Y-105254790D01*
X131446934Y-105254790D02*
X131427370Y-105251506D01*
X131427370Y-105251506D02*
X131382821Y-105241912D01*
X131382821Y-105241912D02*
X131329270Y-105219533D01*
X131329270Y-105219533D02*
X131283072Y-105204536D01*
X131283072Y-105204536D02*
X131204931Y-105188412D01*
X131204931Y-105188412D02*
X131105163Y-105172554D01*
X131105163Y-105172554D02*
X130994083Y-105158354D01*
X130994083Y-105158354D02*
X130882007Y-105147203D01*
X130882007Y-105147203D02*
X130779250Y-105140494D01*
X130779250Y-105140494D02*
X130734161Y-105139235D01*
X130734161Y-105139235D02*
X130621832Y-105142853D01*
X130621832Y-105142853D02*
X130621832Y-105142853D01*
G36*
X130779250Y-105140494D02*
G01*
X130882007Y-105147203D01*
X130994083Y-105158354D01*
X131105163Y-105172554D01*
X131204931Y-105188412D01*
X131283072Y-105204536D01*
X131329270Y-105219533D01*
X131382821Y-105241912D01*
X131427370Y-105251506D01*
X131446934Y-105254790D01*
X131464411Y-105272803D01*
X131471148Y-105284570D01*
X131504054Y-105293970D01*
X131506606Y-105294049D01*
X131553049Y-105305338D01*
X131621557Y-105331770D01*
X131698769Y-105367676D01*
X131771328Y-105407388D01*
X131867966Y-105466799D01*
X131961038Y-105527489D01*
X132017135Y-105569343D01*
X132035911Y-105592119D01*
X132036854Y-105597609D01*
X132058771Y-105611470D01*
X132086899Y-105625423D01*
X132136259Y-105667321D01*
X132200021Y-105730889D01*
X132272555Y-105809781D01*
X132348231Y-105897649D01*
X132421421Y-105988145D01*
X132486495Y-106074921D01*
X132537823Y-106151631D01*
X132567427Y-106205203D01*
X132607067Y-106283923D01*
X132649469Y-106373016D01*
X132687620Y-106458137D01*
X132690928Y-106465801D01*
X132717320Y-106525325D01*
X132738235Y-106570109D01*
X132746159Y-106590152D01*
X132763123Y-106647779D01*
X132779588Y-106718276D01*
X132786798Y-106753312D01*
X132804813Y-106839915D01*
X132820291Y-106913220D01*
X132826199Y-106954219D01*
X132832510Y-107034501D01*
X132836812Y-107134431D01*
X132838401Y-107241303D01*
X132837406Y-107325365D01*
X132833628Y-107427858D01*
X132827689Y-107513433D01*
X132820291Y-107569387D01*
X132814174Y-107598179D01*
X132796855Y-107680805D01*
X132779588Y-107764331D01*
X132770600Y-107804990D01*
X132753393Y-107870400D01*
X132738701Y-107912497D01*
X132737083Y-107915840D01*
X132713932Y-107962941D01*
X132685076Y-108020894D01*
X132681554Y-108028117D01*
X132658976Y-108085881D01*
X132649745Y-108130769D01*
X132646444Y-108153285D01*
X132627273Y-108184027D01*
X132609449Y-108201736D01*
X132584030Y-108243484D01*
X132563219Y-108286122D01*
X132468869Y-108439212D01*
X132344611Y-108596870D01*
X132197940Y-108751015D01*
X132036346Y-108893567D01*
X131867323Y-109016446D01*
X131796030Y-109061152D01*
X131720024Y-109105259D01*
X131661479Y-109135242D01*
X131629198Y-109146303D01*
X131608948Y-109149235D01*
X131591411Y-109165002D01*
X131580866Y-109179259D01*
X131543786Y-109195243D01*
X131509154Y-109205368D01*
X131444041Y-109227101D01*
X131369161Y-109253977D01*
X131327950Y-109267725D01*
X131191772Y-109297174D01*
X131019911Y-109314376D01*
X130908653Y-109319981D01*
X130643287Y-109323403D01*
X130412433Y-109310205D01*
X130212703Y-109279943D01*
X130040712Y-109232170D01*
X129893074Y-109166444D01*
X129869852Y-109156018D01*
X129827458Y-109146303D01*
X129812096Y-109142386D01*
X129766845Y-109119445D01*
X129710937Y-109082803D01*
X129678607Y-109060244D01*
X129631436Y-109030821D01*
X129605167Y-109019303D01*
X129581683Y-109009792D01*
X129542661Y-108982262D01*
X129536062Y-108976802D01*
X129485712Y-108936484D01*
X129428718Y-108892303D01*
X129361409Y-108836354D01*
X129279194Y-108758886D01*
X129194207Y-108671301D01*
X129112069Y-108580097D01*
X129038400Y-108491775D01*
X128978820Y-108412835D01*
X128938950Y-108349776D01*
X128924411Y-108309099D01*
X128922786Y-108295611D01*
X128908536Y-108278227D01*
X128901829Y-108273854D01*
X128879994Y-108241585D01*
X128853795Y-108188269D01*
X128845005Y-108168182D01*
X128812720Y-108096822D01*
X128785003Y-108038629D01*
X128764049Y-107987100D01*
X128754405Y-107943379D01*
X128747627Y-107913591D01*
X128722655Y-107866966D01*
X128717731Y-107859379D01*
X128699004Y-107805868D01*
X128691259Y-107739966D01*
X128691034Y-107729847D01*
X128680896Y-107648062D01*
X128660439Y-107569387D01*
X128649169Y-107525709D01*
X128637108Y-107433997D01*
X128630623Y-107321369D01*
X128629713Y-107200401D01*
X128634379Y-107083669D01*
X128644621Y-106983750D01*
X128660439Y-106913220D01*
X128663846Y-106903232D01*
X128683194Y-106821827D01*
X128691259Y-106742640D01*
X128691702Y-106728522D01*
X128702344Y-106663229D01*
X128722655Y-106615640D01*
X128741589Y-106583549D01*
X128754405Y-106539227D01*
X128754683Y-106535017D01*
X128766615Y-106489733D01*
X128790504Y-106433394D01*
X128791902Y-106430610D01*
X128823977Y-106366466D01*
X128852013Y-106309970D01*
X128883231Y-106247908D01*
X128920285Y-106177324D01*
X128950000Y-106124000D01*
X128966745Y-106098319D01*
X128970871Y-106093527D01*
X128994845Y-106061782D01*
X129029301Y-106013637D01*
X129077250Y-105949811D01*
X129175592Y-105834599D01*
X129285614Y-105720184D01*
X129392934Y-105622053D01*
X129418076Y-105601741D01*
X129481951Y-105554190D01*
X129552145Y-105505765D01*
X129618614Y-105463038D01*
X129671315Y-105432582D01*
X129700205Y-105420970D01*
X129712798Y-105417293D01*
X129736399Y-105389220D01*
X129747832Y-105373015D01*
X129786289Y-105356797D01*
X129817304Y-105350094D01*
X129865082Y-105325047D01*
X129898238Y-105306602D01*
X129950807Y-105293970D01*
X129979294Y-105290915D01*
X130015553Y-105276302D01*
X130061603Y-105250562D01*
X130142954Y-105222890D01*
X130248804Y-105196538D01*
X130370001Y-105173250D01*
X130497395Y-105154774D01*
X130621832Y-105142853D01*
X130734161Y-105139235D01*
X130779250Y-105140494D01*
G37*
X130779250Y-105140494D02*
X130882007Y-105147203D01*
X130994083Y-105158354D01*
X131105163Y-105172554D01*
X131204931Y-105188412D01*
X131283072Y-105204536D01*
X131329270Y-105219533D01*
X131382821Y-105241912D01*
X131427370Y-105251506D01*
X131446934Y-105254790D01*
X131464411Y-105272803D01*
X131471148Y-105284570D01*
X131504054Y-105293970D01*
X131506606Y-105294049D01*
X131553049Y-105305338D01*
X131621557Y-105331770D01*
X131698769Y-105367676D01*
X131771328Y-105407388D01*
X131867966Y-105466799D01*
X131961038Y-105527489D01*
X132017135Y-105569343D01*
X132035911Y-105592119D01*
X132036854Y-105597609D01*
X132058771Y-105611470D01*
X132086899Y-105625423D01*
X132136259Y-105667321D01*
X132200021Y-105730889D01*
X132272555Y-105809781D01*
X132348231Y-105897649D01*
X132421421Y-105988145D01*
X132486495Y-106074921D01*
X132537823Y-106151631D01*
X132567427Y-106205203D01*
X132607067Y-106283923D01*
X132649469Y-106373016D01*
X132687620Y-106458137D01*
X132690928Y-106465801D01*
X132717320Y-106525325D01*
X132738235Y-106570109D01*
X132746159Y-106590152D01*
X132763123Y-106647779D01*
X132779588Y-106718276D01*
X132786798Y-106753312D01*
X132804813Y-106839915D01*
X132820291Y-106913220D01*
X132826199Y-106954219D01*
X132832510Y-107034501D01*
X132836812Y-107134431D01*
X132838401Y-107241303D01*
X132837406Y-107325365D01*
X132833628Y-107427858D01*
X132827689Y-107513433D01*
X132820291Y-107569387D01*
X132814174Y-107598179D01*
X132796855Y-107680805D01*
X132779588Y-107764331D01*
X132770600Y-107804990D01*
X132753393Y-107870400D01*
X132738701Y-107912497D01*
X132737083Y-107915840D01*
X132713932Y-107962941D01*
X132685076Y-108020894D01*
X132681554Y-108028117D01*
X132658976Y-108085881D01*
X132649745Y-108130769D01*
X132646444Y-108153285D01*
X132627273Y-108184027D01*
X132609449Y-108201736D01*
X132584030Y-108243484D01*
X132563219Y-108286122D01*
X132468869Y-108439212D01*
X132344611Y-108596870D01*
X132197940Y-108751015D01*
X132036346Y-108893567D01*
X131867323Y-109016446D01*
X131796030Y-109061152D01*
X131720024Y-109105259D01*
X131661479Y-109135242D01*
X131629198Y-109146303D01*
X131608948Y-109149235D01*
X131591411Y-109165002D01*
X131580866Y-109179259D01*
X131543786Y-109195243D01*
X131509154Y-109205368D01*
X131444041Y-109227101D01*
X131369161Y-109253977D01*
X131327950Y-109267725D01*
X131191772Y-109297174D01*
X131019911Y-109314376D01*
X130908653Y-109319981D01*
X130643287Y-109323403D01*
X130412433Y-109310205D01*
X130212703Y-109279943D01*
X130040712Y-109232170D01*
X129893074Y-109166444D01*
X129869852Y-109156018D01*
X129827458Y-109146303D01*
X129812096Y-109142386D01*
X129766845Y-109119445D01*
X129710937Y-109082803D01*
X129678607Y-109060244D01*
X129631436Y-109030821D01*
X129605167Y-109019303D01*
X129581683Y-109009792D01*
X129542661Y-108982262D01*
X129536062Y-108976802D01*
X129485712Y-108936484D01*
X129428718Y-108892303D01*
X129361409Y-108836354D01*
X129279194Y-108758886D01*
X129194207Y-108671301D01*
X129112069Y-108580097D01*
X129038400Y-108491775D01*
X128978820Y-108412835D01*
X128938950Y-108349776D01*
X128924411Y-108309099D01*
X128922786Y-108295611D01*
X128908536Y-108278227D01*
X128901829Y-108273854D01*
X128879994Y-108241585D01*
X128853795Y-108188269D01*
X128845005Y-108168182D01*
X128812720Y-108096822D01*
X128785003Y-108038629D01*
X128764049Y-107987100D01*
X128754405Y-107943379D01*
X128747627Y-107913591D01*
X128722655Y-107866966D01*
X128717731Y-107859379D01*
X128699004Y-107805868D01*
X128691259Y-107739966D01*
X128691034Y-107729847D01*
X128680896Y-107648062D01*
X128660439Y-107569387D01*
X128649169Y-107525709D01*
X128637108Y-107433997D01*
X128630623Y-107321369D01*
X128629713Y-107200401D01*
X128634379Y-107083669D01*
X128644621Y-106983750D01*
X128660439Y-106913220D01*
X128663846Y-106903232D01*
X128683194Y-106821827D01*
X128691259Y-106742640D01*
X128691702Y-106728522D01*
X128702344Y-106663229D01*
X128722655Y-106615640D01*
X128741589Y-106583549D01*
X128754405Y-106539227D01*
X128754683Y-106535017D01*
X128766615Y-106489733D01*
X128790504Y-106433394D01*
X128791902Y-106430610D01*
X128823977Y-106366466D01*
X128852013Y-106309970D01*
X128883231Y-106247908D01*
X128920285Y-106177324D01*
X128950000Y-106124000D01*
X128966745Y-106098319D01*
X128970871Y-106093527D01*
X128994845Y-106061782D01*
X129029301Y-106013637D01*
X129077250Y-105949811D01*
X129175592Y-105834599D01*
X129285614Y-105720184D01*
X129392934Y-105622053D01*
X129418076Y-105601741D01*
X129481951Y-105554190D01*
X129552145Y-105505765D01*
X129618614Y-105463038D01*
X129671315Y-105432582D01*
X129700205Y-105420970D01*
X129712798Y-105417293D01*
X129736399Y-105389220D01*
X129747832Y-105373015D01*
X129786289Y-105356797D01*
X129817304Y-105350094D01*
X129865082Y-105325047D01*
X129898238Y-105306602D01*
X129950807Y-105293970D01*
X129979294Y-105290915D01*
X130015553Y-105276302D01*
X130061603Y-105250562D01*
X130142954Y-105222890D01*
X130248804Y-105196538D01*
X130370001Y-105173250D01*
X130497395Y-105154774D01*
X130621832Y-105142853D01*
X130734161Y-105139235D01*
X130779250Y-105140494D01*
X131198129Y-117372227D02*
X131189763Y-117320759D01*
X131189763Y-117320759D02*
X131170792Y-117283994D01*
X131170792Y-117283994D02*
X131147807Y-117258207D01*
X131147807Y-117258207D02*
X131115967Y-117230888D01*
X131115967Y-117230888D02*
X131080357Y-117214951D01*
X131080357Y-117214951D02*
X131028832Y-117207422D01*
X131028832Y-117207422D02*
X130949246Y-117205322D01*
X130949246Y-117205322D02*
X130931897Y-117205291D01*
X130931897Y-117205291D02*
X130834904Y-117208977D01*
X130834904Y-117208977D02*
X130768681Y-117219446D01*
X130768681Y-117219446D02*
X130742455Y-117231749D01*
X130742455Y-117231749D02*
X130700833Y-117253252D01*
X130700833Y-117253252D02*
X130667975Y-117258207D01*
X130667975Y-117258207D02*
X130624755Y-117267553D01*
X130624755Y-117267553D02*
X130562042Y-117290720D01*
X130562042Y-117290720D02*
X130496571Y-117320403D01*
X130496571Y-117320403D02*
X130445079Y-117349297D01*
X130445079Y-117349297D02*
X130428140Y-117362897D01*
X130428140Y-117362897D02*
X130394948Y-117388450D01*
X130394948Y-117388450D02*
X130341069Y-117420586D01*
X130341069Y-117420586D02*
X130285265Y-117448234D01*
X130285265Y-117448234D02*
X130248713Y-117471864D01*
X130248713Y-117471864D02*
X130237640Y-117490517D01*
X130237640Y-117490517D02*
X130220037Y-117508505D01*
X130220037Y-117508505D02*
X130197899Y-117512207D01*
X130197899Y-117512207D02*
X130151131Y-117527581D01*
X130151131Y-117527581D02*
X130131807Y-117543957D01*
X130131807Y-117543957D02*
X130095770Y-117570855D01*
X130095770Y-117570855D02*
X130076298Y-117575707D01*
X130076298Y-117575707D02*
X130049433Y-117585016D01*
X130049433Y-117585016D02*
X130046571Y-117591582D01*
X130046571Y-117591582D02*
X130029779Y-117611138D01*
X130029779Y-117611138D02*
X129987874Y-117642557D01*
X129987874Y-117642557D02*
X129961904Y-117659338D01*
X129961904Y-117659338D02*
X129912084Y-117693381D01*
X129912084Y-117693381D02*
X129881925Y-117720373D01*
X129881925Y-117720373D02*
X129877807Y-117728129D01*
X129877807Y-117728129D02*
X129861473Y-117744465D01*
X129861473Y-117744465D02*
X129855783Y-117745041D01*
X129855783Y-117745041D02*
X129827116Y-117756319D01*
X129827116Y-117756319D02*
X129780315Y-117783560D01*
X129780315Y-117783560D02*
X129730769Y-117816875D01*
X129730769Y-117816875D02*
X129693868Y-117846373D01*
X129693868Y-117846373D02*
X129687307Y-117853313D01*
X129687307Y-117853313D02*
X129660686Y-117869265D01*
X129660686Y-117869265D02*
X129629098Y-117881198D01*
X129629098Y-117881198D02*
X129592173Y-117900030D01*
X129592173Y-117900030D02*
X129581473Y-117915801D01*
X129581473Y-117915801D02*
X129564263Y-117933220D01*
X129564263Y-117933220D02*
X129549059Y-117935541D01*
X129549059Y-117935541D02*
X129513741Y-117952665D01*
X129513741Y-117952665D02*
X129504461Y-117967291D01*
X129504461Y-117967291D02*
X129483184Y-117995312D01*
X129483184Y-117995312D02*
X129472467Y-117999041D01*
X129472467Y-117999041D02*
X129446555Y-118010973D01*
X129446555Y-118010973D02*
X129398084Y-118042180D01*
X129398084Y-118042180D02*
X129340517Y-118083707D01*
X129340517Y-118083707D02*
X129280608Y-118126873D01*
X129280608Y-118126873D02*
X129233116Y-118157325D01*
X129233116Y-118157325D02*
X129209133Y-118168230D01*
X129209133Y-118168230D02*
X129185956Y-118152203D01*
X129185956Y-118152203D02*
X129152321Y-118112570D01*
X129152321Y-118112570D02*
X129142997Y-118099438D01*
X129142997Y-118099438D02*
X129090892Y-118031850D01*
X129090892Y-118031850D02*
X129024776Y-117958401D01*
X129024776Y-117958401D02*
X128952286Y-117886171D01*
X128952286Y-117886171D02*
X128881057Y-117822240D01*
X128881057Y-117822240D02*
X128818722Y-117773690D01*
X128818722Y-117773690D02*
X128772919Y-117747601D01*
X128772919Y-117747601D02*
X128760849Y-117745041D01*
X128760849Y-117745041D02*
X128733464Y-117732065D01*
X128733464Y-117732065D02*
X128731279Y-117728264D01*
X128731279Y-117728264D02*
X128710271Y-117707813D01*
X128710271Y-117707813D02*
X128665814Y-117676269D01*
X128665814Y-117676269D02*
X128644848Y-117663038D01*
X128644848Y-117663038D02*
X128596534Y-117629505D01*
X128596534Y-117629505D02*
X128568400Y-117602155D01*
X128568400Y-117602155D02*
X128565473Y-117595148D01*
X128565473Y-117595148D02*
X128547847Y-117579018D01*
X128547847Y-117579018D02*
X128525732Y-117575707D01*
X128525732Y-117575707D02*
X128478965Y-117560334D01*
X128478965Y-117560334D02*
X128459640Y-117543957D01*
X128459640Y-117543957D02*
X128423603Y-117517060D01*
X128423603Y-117517060D02*
X128404132Y-117512207D01*
X128404132Y-117512207D02*
X128377652Y-117501084D01*
X128377652Y-117501084D02*
X128374973Y-117493111D01*
X128374973Y-117493111D02*
X128357545Y-117472364D01*
X128357545Y-117472364D02*
X128316765Y-117450122D01*
X128316765Y-117450122D02*
X128233040Y-117410518D01*
X128233040Y-117410518D02*
X128164044Y-117368300D01*
X128164044Y-117368300D02*
X128136125Y-117345326D01*
X128136125Y-117345326D02*
X128097211Y-117326309D01*
X128097211Y-117326309D02*
X128063824Y-117321707D01*
X128063824Y-117321707D02*
X128026115Y-117314040D01*
X128026115Y-117314040D02*
X128015140Y-117300944D01*
X128015140Y-117300944D02*
X127996993Y-117281871D01*
X127996993Y-117281871D02*
X127956932Y-117267208D01*
X127956932Y-117267208D02*
X127896364Y-117249160D01*
X127896364Y-117249160D02*
X127829722Y-117223298D01*
X127829722Y-117223298D02*
X127826985Y-117222080D01*
X127826985Y-117222080D02*
X127731820Y-117199448D01*
X127731820Y-117199448D02*
X127670263Y-117201323D01*
X127670263Y-117201323D02*
X127582374Y-117231036D01*
X127582374Y-117231036D02*
X127521581Y-117289376D01*
X127521581Y-117289376D02*
X127490196Y-117370650D01*
X127490196Y-117370650D02*
X127490532Y-117469163D01*
X127490532Y-117469163D02*
X127520657Y-117569698D01*
X127520657Y-117569698D02*
X127547369Y-117632083D01*
X127547369Y-117632083D02*
X127569262Y-117684374D01*
X127569262Y-117684374D02*
X127572418Y-117692124D01*
X127572418Y-117692124D02*
X127590864Y-117736223D01*
X127590864Y-117736223D02*
X127618299Y-117800108D01*
X127618299Y-117800108D02*
X127632984Y-117833838D01*
X127632984Y-117833838D02*
X127657993Y-117895076D01*
X127657993Y-117895076D02*
X127673716Y-117941441D01*
X127673716Y-117941441D02*
X127676473Y-117955546D01*
X127676473Y-117955546D02*
X127690704Y-117977044D01*
X127690704Y-117977044D02*
X127695958Y-117977874D01*
X127695958Y-117977874D02*
X127713602Y-117996121D01*
X127713602Y-117996121D02*
X127729115Y-118040139D01*
X127729115Y-118040139D02*
X127729390Y-118041374D01*
X127729390Y-118041374D02*
X127744749Y-118085811D01*
X127744749Y-118085811D02*
X127762440Y-118104862D01*
X127762440Y-118104862D02*
X127762822Y-118104874D01*
X127762822Y-118104874D02*
X127778849Y-118122550D01*
X127778849Y-118122550D02*
X127782307Y-118145696D01*
X127782307Y-118145696D02*
X127796733Y-118195395D01*
X127796733Y-118195395D02*
X127811264Y-118215474D01*
X127811264Y-118215474D02*
X127841487Y-118259479D01*
X127841487Y-118259479D02*
X127855024Y-118291070D01*
X127855024Y-118291070D02*
X127874029Y-118327490D01*
X127874029Y-118327490D02*
X127889567Y-118337707D01*
X127889567Y-118337707D02*
X127905944Y-118355331D01*
X127905944Y-118355331D02*
X127909307Y-118377449D01*
X127909307Y-118377449D02*
X127924680Y-118424216D01*
X127924680Y-118424216D02*
X127941057Y-118443541D01*
X127941057Y-118443541D02*
X127967894Y-118478381D01*
X127967894Y-118478381D02*
X127972807Y-118496785D01*
X127972807Y-118496785D02*
X127989831Y-118527123D01*
X127989831Y-118527123D02*
X128004557Y-118535862D01*
X128004557Y-118535862D02*
X128031631Y-118564799D01*
X128031631Y-118564799D02*
X128036307Y-118586744D01*
X128036307Y-118586744D02*
X128051664Y-118624802D01*
X128051664Y-118624802D02*
X128089546Y-118669165D01*
X128089546Y-118669165D02*
X128098910Y-118677367D01*
X128098910Y-118677367D02*
X128139783Y-118717468D01*
X128139783Y-118717468D02*
X128161429Y-118750749D01*
X128161429Y-118750749D02*
X128162410Y-118755749D01*
X128162410Y-118755749D02*
X128180065Y-118781124D01*
X128180065Y-118781124D02*
X128189765Y-118783379D01*
X128189765Y-118783379D02*
X128224652Y-118801618D01*
X128224652Y-118801618D02*
X128262003Y-118843192D01*
X128262003Y-118843192D02*
X128290812Y-118892368D01*
X128290812Y-118892368D02*
X128300074Y-118933411D01*
X128300074Y-118933411D02*
X128298681Y-118939081D01*
X128298681Y-118939081D02*
X128277609Y-118968245D01*
X128277609Y-118968245D02*
X128266162Y-118972707D01*
X128266162Y-118972707D02*
X128240324Y-118986635D01*
X128240324Y-118986635D02*
X128199411Y-119021475D01*
X128199411Y-119021475D02*
X128184473Y-119036207D01*
X128184473Y-119036207D02*
X128141770Y-119075746D01*
X128141770Y-119075746D02*
X128109922Y-119097952D01*
X128109922Y-119097952D02*
X128103887Y-119099707D01*
X128103887Y-119099707D02*
X128080064Y-119113251D01*
X128080064Y-119113251D02*
X128035916Y-119148646D01*
X128035916Y-119148646D02*
X127984537Y-119194957D01*
X127984537Y-119194957D02*
X127931480Y-119243579D01*
X127931480Y-119243579D02*
X127891001Y-119277903D01*
X127891001Y-119277903D02*
X127872472Y-119290207D01*
X127872472Y-119290207D02*
X127851968Y-119304157D01*
X127851968Y-119304157D02*
X127816785Y-119338232D01*
X127816785Y-119338232D02*
X127812203Y-119343124D01*
X127812203Y-119343124D02*
X127774441Y-119379106D01*
X127774441Y-119379106D02*
X127747842Y-119396189D01*
X127747842Y-119396189D02*
X127746276Y-119396399D01*
X127746276Y-119396399D02*
X127723264Y-119410058D01*
X127723264Y-119410058D02*
X127679627Y-119445408D01*
X127679627Y-119445408D02*
X127628228Y-119491649D01*
X127628228Y-119491649D02*
X127573410Y-119540323D01*
X127573410Y-119540323D02*
X127529267Y-119574552D01*
X127529267Y-119574552D02*
X127506520Y-119586541D01*
X127506520Y-119586541D02*
X127487918Y-119603525D01*
X127487918Y-119603525D02*
X127485973Y-119615996D01*
X127485973Y-119615996D02*
X127468148Y-119644129D01*
X127468148Y-119644129D02*
X127438348Y-119659340D01*
X127438348Y-119659340D02*
X127399011Y-119683968D01*
X127399011Y-119683968D02*
X127343307Y-119735444D01*
X127343307Y-119735444D02*
X127278295Y-119805353D01*
X127278295Y-119805353D02*
X127211032Y-119885281D01*
X127211032Y-119885281D02*
X127148577Y-119966813D01*
X127148577Y-119966813D02*
X127097988Y-120041535D01*
X127097988Y-120041535D02*
X127066322Y-120101033D01*
X127066322Y-120101033D02*
X127064976Y-120104466D01*
X127064976Y-120104466D02*
X127040811Y-120163270D01*
X127040811Y-120163270D02*
X127020508Y-120204455D01*
X127020508Y-120204455D02*
X127014224Y-120213512D01*
X127014224Y-120213512D02*
X127000873Y-120250267D01*
X127000873Y-120250267D02*
X126999627Y-120307800D01*
X126999627Y-120307800D02*
X127008868Y-120366840D01*
X127008868Y-120366840D02*
X127026978Y-120408120D01*
X127026978Y-120408120D02*
X127030890Y-120412041D01*
X127030890Y-120412041D02*
X127058294Y-120451002D01*
X127058294Y-120451002D02*
X127063344Y-120472841D01*
X127063344Y-120472841D02*
X127084639Y-120535794D01*
X127084639Y-120535794D02*
X127141694Y-120591071D01*
X127141694Y-120591071D02*
X127228324Y-120636702D01*
X127228324Y-120636702D02*
X127338341Y-120670713D01*
X127338341Y-120670713D02*
X127465560Y-120691135D01*
X127465560Y-120691135D02*
X127603794Y-120695994D01*
X127603794Y-120695994D02*
X127731064Y-120685635D01*
X127731064Y-120685635D02*
X127866685Y-120655379D01*
X127866685Y-120655379D02*
X127996681Y-120605807D01*
X127996681Y-120605807D02*
X128108163Y-120542746D01*
X128108163Y-120542746D02*
X128178145Y-120483534D01*
X128178145Y-120483534D02*
X128220532Y-120448225D01*
X128220532Y-120448225D02*
X128257736Y-120433212D01*
X128257736Y-120433212D02*
X128258210Y-120433207D01*
X128258210Y-120433207D02*
X128294440Y-120416067D01*
X128294440Y-120416067D02*
X128303819Y-120401457D01*
X128303819Y-120401457D02*
X128330841Y-120373320D01*
X128330841Y-120373320D02*
X128346152Y-120369707D01*
X128346152Y-120369707D02*
X128379428Y-120352622D01*
X128379428Y-120352622D02*
X128388486Y-120337957D01*
X128388486Y-120337957D02*
X128412508Y-120309876D01*
X128412508Y-120309876D02*
X128425438Y-120306207D01*
X128425438Y-120306207D02*
X128455114Y-120292913D01*
X128455114Y-120292913D02*
X128500489Y-120259475D01*
X128500489Y-120259475D02*
X128519729Y-120242707D01*
X128519729Y-120242707D02*
X128566146Y-120204079D01*
X128566146Y-120204079D02*
X128601180Y-120181565D01*
X128601180Y-120181565D02*
X128609113Y-120179207D01*
X128609113Y-120179207D02*
X128628604Y-120165542D01*
X128628604Y-120165542D02*
X128628973Y-120162296D01*
X128628973Y-120162296D02*
X128645429Y-120142126D01*
X128645429Y-120142126D02*
X128687132Y-120110334D01*
X128687132Y-120110334D02*
X128713071Y-120093504D01*
X128713071Y-120093504D02*
X128763001Y-120059664D01*
X128763001Y-120059664D02*
X128793443Y-120033187D01*
X128793443Y-120033187D02*
X128797738Y-120025749D01*
X128797738Y-120025749D02*
X128815228Y-120011085D01*
X128815228Y-120011085D02*
X128825758Y-120009874D01*
X128825758Y-120009874D02*
X128856098Y-119994785D01*
X128856098Y-119994785D02*
X128896298Y-119957479D01*
X128896298Y-119957479D02*
X128905133Y-119947271D01*
X128905133Y-119947271D02*
X128946857Y-119906232D01*
X128946857Y-119906232D02*
X128983718Y-119884673D01*
X128983718Y-119884673D02*
X128989385Y-119883771D01*
X128989385Y-119883771D02*
X129022605Y-119868286D01*
X129022605Y-119868286D02*
X129066686Y-119830623D01*
X129066686Y-119830623D02*
X129081583Y-119814646D01*
X129081583Y-119814646D02*
X129141452Y-119746417D01*
X129141452Y-119746417D02*
X129197421Y-119810842D01*
X129197421Y-119810842D02*
X129265313Y-119886896D01*
X129265313Y-119886896D02*
X129337997Y-119965072D01*
X129337997Y-119965072D02*
X129399819Y-120028551D01*
X129399819Y-120028551D02*
X129402347Y-120031041D01*
X129402347Y-120031041D02*
X129427057Y-120055823D01*
X129427057Y-120055823D02*
X129476079Y-120105403D01*
X129476079Y-120105403D02*
X129544073Y-120174363D01*
X129544073Y-120174363D02*
X129625697Y-120257288D01*
X129625697Y-120257288D02*
X129711203Y-120344272D01*
X129711203Y-120344272D02*
X129830003Y-120464301D01*
X129830003Y-120464301D02*
X129925400Y-120557126D01*
X129925400Y-120557126D02*
X130003145Y-120626243D01*
X130003145Y-120626243D02*
X130068987Y-120675143D01*
X130068987Y-120675143D02*
X130128677Y-120707320D01*
X130128677Y-120707320D02*
X130187965Y-120726268D01*
X130187965Y-120726268D02*
X130252600Y-120735478D01*
X130252600Y-120735478D02*
X130328335Y-120738445D01*
X130328335Y-120738445D02*
X130360418Y-120738660D01*
X130360418Y-120738660D02*
X130447976Y-120736766D01*
X130447976Y-120736766D02*
X130518966Y-120731270D01*
X130518966Y-120731270D02*
X130563145Y-120723157D01*
X130563145Y-120723157D02*
X130572085Y-120718288D01*
X130572085Y-120718288D02*
X130597791Y-120694555D01*
X130597791Y-120694555D02*
X130645002Y-120659472D01*
X130645002Y-120659472D02*
X130666804Y-120644685D01*
X130666804Y-120644685D02*
X130718666Y-120602169D01*
X130718666Y-120602169D02*
X130753299Y-120558504D01*
X130753299Y-120558504D02*
X130758839Y-120545201D01*
X130758839Y-120545201D02*
X130781442Y-120496403D01*
X130781442Y-120496403D02*
X130800634Y-120473817D01*
X130800634Y-120473817D02*
X130817099Y-120438787D01*
X130817099Y-120438787D02*
X130827577Y-120374366D01*
X130827577Y-120374366D02*
X130832129Y-120293065D01*
X130832129Y-120293065D02*
X130830818Y-120207394D01*
X130830818Y-120207394D02*
X130823705Y-120129860D01*
X130823705Y-120129860D02*
X130810852Y-120072974D01*
X130810852Y-120072974D02*
X130798557Y-120052207D01*
X130798557Y-120052207D02*
X130771933Y-120021375D01*
X130771933Y-120021375D02*
X130766807Y-120006733D01*
X130766807Y-120006733D02*
X130754838Y-119979550D01*
X130754838Y-119979550D02*
X130724617Y-119932925D01*
X130724617Y-119932925D02*
X130684672Y-119878127D01*
X130684672Y-119878127D02*
X130643532Y-119826423D01*
X130643532Y-119826423D02*
X130609723Y-119789080D01*
X130609723Y-119789080D02*
X130592955Y-119777041D01*
X130592955Y-119777041D02*
X130576868Y-119760706D01*
X130576868Y-119760706D02*
X130576307Y-119755056D01*
X130576307Y-119755056D02*
X130562634Y-119728885D01*
X130562634Y-119728885D02*
X130527305Y-119684134D01*
X130527305Y-119684134D02*
X130491640Y-119644959D01*
X130491640Y-119644959D02*
X130445782Y-119594522D01*
X130445782Y-119594522D02*
X130415035Y-119555511D01*
X130415035Y-119555511D02*
X130406973Y-119539944D01*
X130406973Y-119539944D02*
X130389770Y-119524931D01*
X130389770Y-119524931D02*
X130375223Y-119523041D01*
X130375223Y-119523041D02*
X130347160Y-119506160D01*
X130347160Y-119506160D02*
X130343473Y-119491414D01*
X130343473Y-119491414D02*
X130329439Y-119460705D01*
X130329439Y-119460705D02*
X130292874Y-119412175D01*
X130292874Y-119412175D02*
X130248223Y-119363169D01*
X130248223Y-119363169D02*
X130199149Y-119311900D01*
X130199149Y-119311900D02*
X130164761Y-119273130D01*
X130164761Y-119273130D02*
X130152973Y-119256202D01*
X130152973Y-119256202D02*
X130139418Y-119235796D01*
X130139418Y-119235796D02*
X130106649Y-119200726D01*
X130106649Y-119200726D02*
X130105127Y-119199238D01*
X130105127Y-119199238D02*
X130049515Y-119143104D01*
X130049515Y-119143104D02*
X130023012Y-119103271D01*
X130023012Y-119103271D02*
X130025812Y-119067705D01*
X130025812Y-119067705D02*
X130058108Y-119024370D01*
X130058108Y-119024370D02*
X130108767Y-118972565D01*
X130108767Y-118972565D02*
X130161589Y-118917725D01*
X130161589Y-118917725D02*
X130200000Y-118874000D01*
X130200000Y-118874000D02*
X130216346Y-118850151D01*
X130216346Y-118850151D02*
X130216473Y-118849263D01*
X130216473Y-118849263D02*
X130232872Y-118829145D01*
X130232872Y-118829145D02*
X130273043Y-118800345D01*
X130273043Y-118800345D02*
X130279973Y-118796158D01*
X130279973Y-118796158D02*
X130322548Y-118765904D01*
X130322548Y-118765904D02*
X130343125Y-118741252D01*
X130343125Y-118741252D02*
X130343473Y-118738987D01*
X130343473Y-118738987D02*
X130357419Y-118714636D01*
X130357419Y-118714636D02*
X130393611Y-118671428D01*
X130393611Y-118671428D02*
X130434029Y-118629059D01*
X130434029Y-118629059D02*
X130502405Y-118557392D01*
X130502405Y-118557392D02*
X130574074Y-118477037D01*
X130574074Y-118477037D02*
X130605281Y-118439939D01*
X130605281Y-118439939D02*
X130664409Y-118369992D01*
X130664409Y-118369992D02*
X130735461Y-118289398D01*
X130735461Y-118289398D02*
X130789892Y-118229819D01*
X130789892Y-118229819D02*
X130841076Y-118171919D01*
X130841076Y-118171919D02*
X130878182Y-118124040D01*
X130878182Y-118124040D02*
X130893720Y-118095912D01*
X130893720Y-118095912D02*
X130893807Y-118094845D01*
X130893807Y-118094845D02*
X130908807Y-118067050D01*
X130908807Y-118067050D02*
X130945920Y-118028251D01*
X130945920Y-118028251D02*
X130956410Y-118019215D01*
X130956410Y-118019215D02*
X130997283Y-117979114D01*
X130997283Y-117979114D02*
X131018929Y-117945832D01*
X131018929Y-117945832D02*
X131019910Y-117940832D01*
X131019910Y-117940832D02*
X131033927Y-117916211D01*
X131033927Y-117916211D02*
X131041570Y-117914374D01*
X131041570Y-117914374D02*
X131061633Y-117896414D01*
X131061633Y-117896414D02*
X131075615Y-117861457D01*
X131075615Y-117861457D02*
X131091626Y-117821843D01*
X131091626Y-117821843D02*
X131106809Y-117808541D01*
X131106809Y-117808541D02*
X131121642Y-117789959D01*
X131121642Y-117789959D02*
X131136069Y-117743849D01*
X131136069Y-117743849D02*
X131139024Y-117729166D01*
X131139024Y-117729166D02*
X131154206Y-117669382D01*
X131154206Y-117669382D02*
X131172914Y-117625671D01*
X131172914Y-117625671D02*
X131175859Y-117621485D01*
X131175859Y-117621485D02*
X131187606Y-117586749D01*
X131187606Y-117586749D02*
X131196173Y-117523804D01*
X131196173Y-117523804D02*
X131199557Y-117452151D01*
X131199557Y-117452151D02*
X131198129Y-117372227D01*
X131198129Y-117372227D02*
X131198129Y-117372227D01*
G36*
X127826985Y-117222080D02*
G01*
X127829722Y-117223298D01*
X127896364Y-117249160D01*
X127956932Y-117267208D01*
X127996993Y-117281871D01*
X128015140Y-117300944D01*
X128026115Y-117314040D01*
X128063824Y-117321707D01*
X128097211Y-117326309D01*
X128136125Y-117345326D01*
X128164044Y-117368300D01*
X128233040Y-117410518D01*
X128316765Y-117450122D01*
X128357545Y-117472364D01*
X128374973Y-117493111D01*
X128377652Y-117501084D01*
X128404132Y-117512207D01*
X128423603Y-117517060D01*
X128459640Y-117543957D01*
X128478965Y-117560334D01*
X128525732Y-117575707D01*
X128547847Y-117579018D01*
X128565473Y-117595148D01*
X128568400Y-117602155D01*
X128596534Y-117629505D01*
X128644848Y-117663038D01*
X128665814Y-117676269D01*
X128710271Y-117707813D01*
X128731279Y-117728264D01*
X128733464Y-117732065D01*
X128760849Y-117745041D01*
X128772919Y-117747601D01*
X128818722Y-117773690D01*
X128881057Y-117822240D01*
X128952286Y-117886171D01*
X129024776Y-117958401D01*
X129090892Y-118031850D01*
X129142997Y-118099438D01*
X129152321Y-118112570D01*
X129185956Y-118152203D01*
X129209133Y-118168230D01*
X129233116Y-118157325D01*
X129280608Y-118126873D01*
X129340517Y-118083707D01*
X129398084Y-118042180D01*
X129446555Y-118010973D01*
X129472467Y-117999041D01*
X129483184Y-117995312D01*
X129504461Y-117967291D01*
X129513741Y-117952665D01*
X129549059Y-117935541D01*
X129564263Y-117933220D01*
X129581473Y-117915801D01*
X129592173Y-117900030D01*
X129629098Y-117881198D01*
X129660686Y-117869265D01*
X129687307Y-117853313D01*
X129693868Y-117846373D01*
X129730769Y-117816875D01*
X129780315Y-117783560D01*
X129827116Y-117756319D01*
X129855783Y-117745041D01*
X129861473Y-117744465D01*
X129877807Y-117728129D01*
X129881925Y-117720373D01*
X129912084Y-117693381D01*
X129961904Y-117659338D01*
X129987874Y-117642557D01*
X130029779Y-117611138D01*
X130046571Y-117591582D01*
X130049433Y-117585016D01*
X130076298Y-117575707D01*
X130095770Y-117570855D01*
X130131807Y-117543957D01*
X130151131Y-117527581D01*
X130197899Y-117512207D01*
X130220037Y-117508505D01*
X130237640Y-117490517D01*
X130248713Y-117471864D01*
X130285265Y-117448234D01*
X130341069Y-117420586D01*
X130394948Y-117388450D01*
X130428140Y-117362897D01*
X130445079Y-117349297D01*
X130496571Y-117320403D01*
X130562042Y-117290720D01*
X130624755Y-117267553D01*
X130667975Y-117258207D01*
X130700833Y-117253252D01*
X130742455Y-117231749D01*
X130768681Y-117219446D01*
X130834904Y-117208977D01*
X130931897Y-117205291D01*
X130949246Y-117205322D01*
X131028832Y-117207422D01*
X131080357Y-117214951D01*
X131115967Y-117230888D01*
X131147807Y-117258207D01*
X131170792Y-117283994D01*
X131189763Y-117320759D01*
X131198129Y-117372227D01*
X131199557Y-117452151D01*
X131196173Y-117523804D01*
X131187606Y-117586749D01*
X131175859Y-117621485D01*
X131172914Y-117625671D01*
X131154206Y-117669382D01*
X131139024Y-117729166D01*
X131136069Y-117743849D01*
X131121642Y-117789959D01*
X131106809Y-117808541D01*
X131091626Y-117821843D01*
X131075615Y-117861457D01*
X131061633Y-117896414D01*
X131041570Y-117914374D01*
X131033927Y-117916211D01*
X131019910Y-117940832D01*
X131018929Y-117945832D01*
X130997283Y-117979114D01*
X130956410Y-118019215D01*
X130945920Y-118028251D01*
X130908807Y-118067050D01*
X130893807Y-118094845D01*
X130893720Y-118095912D01*
X130878182Y-118124040D01*
X130841076Y-118171919D01*
X130789892Y-118229819D01*
X130735461Y-118289398D01*
X130664409Y-118369992D01*
X130605281Y-118439939D01*
X130574074Y-118477037D01*
X130502405Y-118557392D01*
X130434029Y-118629059D01*
X130393611Y-118671428D01*
X130357419Y-118714636D01*
X130343473Y-118738987D01*
X130343125Y-118741252D01*
X130322548Y-118765904D01*
X130279973Y-118796158D01*
X130273043Y-118800345D01*
X130232872Y-118829145D01*
X130216473Y-118849263D01*
X130216346Y-118850151D01*
X130200000Y-118874000D01*
X130161589Y-118917725D01*
X130108767Y-118972565D01*
X130058108Y-119024370D01*
X130025812Y-119067705D01*
X130023012Y-119103271D01*
X130049515Y-119143104D01*
X130105127Y-119199238D01*
X130106649Y-119200726D01*
X130139418Y-119235796D01*
X130152973Y-119256202D01*
X130164761Y-119273130D01*
X130199149Y-119311900D01*
X130248223Y-119363169D01*
X130292874Y-119412175D01*
X130329439Y-119460705D01*
X130343473Y-119491414D01*
X130347160Y-119506160D01*
X130375223Y-119523041D01*
X130389770Y-119524931D01*
X130406973Y-119539944D01*
X130415035Y-119555511D01*
X130445782Y-119594522D01*
X130491640Y-119644959D01*
X130527305Y-119684134D01*
X130562634Y-119728885D01*
X130576307Y-119755056D01*
X130576868Y-119760706D01*
X130592955Y-119777041D01*
X130609723Y-119789080D01*
X130643532Y-119826423D01*
X130684672Y-119878127D01*
X130724617Y-119932925D01*
X130754838Y-119979550D01*
X130766807Y-120006733D01*
X130771933Y-120021375D01*
X130798557Y-120052207D01*
X130810852Y-120072974D01*
X130823705Y-120129860D01*
X130830818Y-120207394D01*
X130832129Y-120293065D01*
X130827577Y-120374366D01*
X130817099Y-120438787D01*
X130800634Y-120473817D01*
X130781442Y-120496403D01*
X130758839Y-120545201D01*
X130753299Y-120558504D01*
X130718666Y-120602169D01*
X130666804Y-120644685D01*
X130645002Y-120659472D01*
X130597791Y-120694555D01*
X130572085Y-120718288D01*
X130563145Y-120723157D01*
X130518966Y-120731270D01*
X130447976Y-120736766D01*
X130360418Y-120738660D01*
X130328335Y-120738445D01*
X130252600Y-120735478D01*
X130187965Y-120726268D01*
X130128677Y-120707320D01*
X130068987Y-120675143D01*
X130003145Y-120626243D01*
X129925400Y-120557126D01*
X129830003Y-120464301D01*
X129711203Y-120344272D01*
X129625697Y-120257288D01*
X129544073Y-120174363D01*
X129476079Y-120105403D01*
X129427057Y-120055823D01*
X129402347Y-120031041D01*
X129399819Y-120028551D01*
X129337997Y-119965072D01*
X129265313Y-119886896D01*
X129197421Y-119810842D01*
X129141452Y-119746417D01*
X129081583Y-119814646D01*
X129066686Y-119830623D01*
X129022605Y-119868286D01*
X128989385Y-119883771D01*
X128983718Y-119884673D01*
X128946857Y-119906232D01*
X128905133Y-119947271D01*
X128896298Y-119957479D01*
X128856098Y-119994785D01*
X128825758Y-120009874D01*
X128815228Y-120011085D01*
X128797738Y-120025749D01*
X128793443Y-120033187D01*
X128763001Y-120059664D01*
X128713071Y-120093504D01*
X128687132Y-120110334D01*
X128645429Y-120142126D01*
X128628973Y-120162296D01*
X128628604Y-120165542D01*
X128609113Y-120179207D01*
X128601180Y-120181565D01*
X128566146Y-120204079D01*
X128519729Y-120242707D01*
X128500489Y-120259475D01*
X128455114Y-120292913D01*
X128425438Y-120306207D01*
X128412508Y-120309876D01*
X128388486Y-120337957D01*
X128379428Y-120352622D01*
X128346152Y-120369707D01*
X128330841Y-120373320D01*
X128303819Y-120401457D01*
X128294440Y-120416067D01*
X128258210Y-120433207D01*
X128257736Y-120433212D01*
X128220532Y-120448225D01*
X128178145Y-120483534D01*
X128108163Y-120542746D01*
X127996681Y-120605807D01*
X127866685Y-120655379D01*
X127731064Y-120685635D01*
X127603794Y-120695994D01*
X127465560Y-120691135D01*
X127338341Y-120670713D01*
X127228324Y-120636702D01*
X127141694Y-120591071D01*
X127084639Y-120535794D01*
X127063344Y-120472841D01*
X127058294Y-120451002D01*
X127030890Y-120412041D01*
X127026978Y-120408120D01*
X127008868Y-120366840D01*
X126999627Y-120307800D01*
X127000873Y-120250267D01*
X127014224Y-120213512D01*
X127020508Y-120204455D01*
X127040811Y-120163270D01*
X127064976Y-120104466D01*
X127066322Y-120101033D01*
X127097988Y-120041535D01*
X127148577Y-119966813D01*
X127211032Y-119885281D01*
X127278295Y-119805353D01*
X127343307Y-119735444D01*
X127399011Y-119683968D01*
X127438348Y-119659340D01*
X127468148Y-119644129D01*
X127485973Y-119615996D01*
X127487918Y-119603525D01*
X127506520Y-119586541D01*
X127529267Y-119574552D01*
X127573410Y-119540323D01*
X127628228Y-119491649D01*
X127679627Y-119445408D01*
X127723264Y-119410058D01*
X127746276Y-119396399D01*
X127747842Y-119396189D01*
X127774441Y-119379106D01*
X127812203Y-119343124D01*
X127816785Y-119338232D01*
X127851968Y-119304157D01*
X127872472Y-119290207D01*
X127891001Y-119277903D01*
X127931480Y-119243579D01*
X127984537Y-119194957D01*
X128035916Y-119148646D01*
X128080064Y-119113251D01*
X128103887Y-119099707D01*
X128109922Y-119097952D01*
X128141770Y-119075746D01*
X128184473Y-119036207D01*
X128199411Y-119021475D01*
X128240324Y-118986635D01*
X128266162Y-118972707D01*
X128277609Y-118968245D01*
X128298681Y-118939081D01*
X128300074Y-118933411D01*
X128290812Y-118892368D01*
X128262003Y-118843192D01*
X128224652Y-118801618D01*
X128189765Y-118783379D01*
X128180065Y-118781124D01*
X128162410Y-118755749D01*
X128161429Y-118750749D01*
X128139783Y-118717468D01*
X128098910Y-118677367D01*
X128089546Y-118669165D01*
X128051664Y-118624802D01*
X128036307Y-118586744D01*
X128031631Y-118564799D01*
X128004557Y-118535862D01*
X127989831Y-118527123D01*
X127972807Y-118496785D01*
X127967894Y-118478381D01*
X127941057Y-118443541D01*
X127924680Y-118424216D01*
X127909307Y-118377449D01*
X127905944Y-118355331D01*
X127889567Y-118337707D01*
X127874029Y-118327490D01*
X127855024Y-118291070D01*
X127841487Y-118259479D01*
X127811264Y-118215474D01*
X127796733Y-118195395D01*
X127782307Y-118145696D01*
X127778849Y-118122550D01*
X127762822Y-118104874D01*
X127762440Y-118104862D01*
X127744749Y-118085811D01*
X127729390Y-118041374D01*
X127729115Y-118040139D01*
X127713602Y-117996121D01*
X127695958Y-117977874D01*
X127690704Y-117977044D01*
X127676473Y-117955546D01*
X127673716Y-117941441D01*
X127657993Y-117895076D01*
X127632984Y-117833838D01*
X127618299Y-117800108D01*
X127590864Y-117736223D01*
X127572418Y-117692124D01*
X127569262Y-117684374D01*
X127547369Y-117632083D01*
X127520657Y-117569698D01*
X127490532Y-117469163D01*
X127490196Y-117370650D01*
X127521581Y-117289376D01*
X127582374Y-117231036D01*
X127670263Y-117201323D01*
X127731820Y-117199448D01*
X127826985Y-117222080D01*
G37*
X127826985Y-117222080D02*
X127829722Y-117223298D01*
X127896364Y-117249160D01*
X127956932Y-117267208D01*
X127996993Y-117281871D01*
X128015140Y-117300944D01*
X128026115Y-117314040D01*
X128063824Y-117321707D01*
X128097211Y-117326309D01*
X128136125Y-117345326D01*
X128164044Y-117368300D01*
X128233040Y-117410518D01*
X128316765Y-117450122D01*
X128357545Y-117472364D01*
X128374973Y-117493111D01*
X128377652Y-117501084D01*
X128404132Y-117512207D01*
X128423603Y-117517060D01*
X128459640Y-117543957D01*
X128478965Y-117560334D01*
X128525732Y-117575707D01*
X128547847Y-117579018D01*
X128565473Y-117595148D01*
X128568400Y-117602155D01*
X128596534Y-117629505D01*
X128644848Y-117663038D01*
X128665814Y-117676269D01*
X128710271Y-117707813D01*
X128731279Y-117728264D01*
X128733464Y-117732065D01*
X128760849Y-117745041D01*
X128772919Y-117747601D01*
X128818722Y-117773690D01*
X128881057Y-117822240D01*
X128952286Y-117886171D01*
X129024776Y-117958401D01*
X129090892Y-118031850D01*
X129142997Y-118099438D01*
X129152321Y-118112570D01*
X129185956Y-118152203D01*
X129209133Y-118168230D01*
X129233116Y-118157325D01*
X129280608Y-118126873D01*
X129340517Y-118083707D01*
X129398084Y-118042180D01*
X129446555Y-118010973D01*
X129472467Y-117999041D01*
X129483184Y-117995312D01*
X129504461Y-117967291D01*
X129513741Y-117952665D01*
X129549059Y-117935541D01*
X129564263Y-117933220D01*
X129581473Y-117915801D01*
X129592173Y-117900030D01*
X129629098Y-117881198D01*
X129660686Y-117869265D01*
X129687307Y-117853313D01*
X129693868Y-117846373D01*
X129730769Y-117816875D01*
X129780315Y-117783560D01*
X129827116Y-117756319D01*
X129855783Y-117745041D01*
X129861473Y-117744465D01*
X129877807Y-117728129D01*
X129881925Y-117720373D01*
X129912084Y-117693381D01*
X129961904Y-117659338D01*
X129987874Y-117642557D01*
X130029779Y-117611138D01*
X130046571Y-117591582D01*
X130049433Y-117585016D01*
X130076298Y-117575707D01*
X130095770Y-117570855D01*
X130131807Y-117543957D01*
X130151131Y-117527581D01*
X130197899Y-117512207D01*
X130220037Y-117508505D01*
X130237640Y-117490517D01*
X130248713Y-117471864D01*
X130285265Y-117448234D01*
X130341069Y-117420586D01*
X130394948Y-117388450D01*
X130428140Y-117362897D01*
X130445079Y-117349297D01*
X130496571Y-117320403D01*
X130562042Y-117290720D01*
X130624755Y-117267553D01*
X130667975Y-117258207D01*
X130700833Y-117253252D01*
X130742455Y-117231749D01*
X130768681Y-117219446D01*
X130834904Y-117208977D01*
X130931897Y-117205291D01*
X130949246Y-117205322D01*
X131028832Y-117207422D01*
X131080357Y-117214951D01*
X131115967Y-117230888D01*
X131147807Y-117258207D01*
X131170792Y-117283994D01*
X131189763Y-117320759D01*
X131198129Y-117372227D01*
X131199557Y-117452151D01*
X131196173Y-117523804D01*
X131187606Y-117586749D01*
X131175859Y-117621485D01*
X131172914Y-117625671D01*
X131154206Y-117669382D01*
X131139024Y-117729166D01*
X131136069Y-117743849D01*
X131121642Y-117789959D01*
X131106809Y-117808541D01*
X131091626Y-117821843D01*
X131075615Y-117861457D01*
X131061633Y-117896414D01*
X131041570Y-117914374D01*
X131033927Y-117916211D01*
X131019910Y-117940832D01*
X131018929Y-117945832D01*
X130997283Y-117979114D01*
X130956410Y-118019215D01*
X130945920Y-118028251D01*
X130908807Y-118067050D01*
X130893807Y-118094845D01*
X130893720Y-118095912D01*
X130878182Y-118124040D01*
X130841076Y-118171919D01*
X130789892Y-118229819D01*
X130735461Y-118289398D01*
X130664409Y-118369992D01*
X130605281Y-118439939D01*
X130574074Y-118477037D01*
X130502405Y-118557392D01*
X130434029Y-118629059D01*
X130393611Y-118671428D01*
X130357419Y-118714636D01*
X130343473Y-118738987D01*
X130343125Y-118741252D01*
X130322548Y-118765904D01*
X130279973Y-118796158D01*
X130273043Y-118800345D01*
X130232872Y-118829145D01*
X130216473Y-118849263D01*
X130216346Y-118850151D01*
X130200000Y-118874000D01*
X130161589Y-118917725D01*
X130108767Y-118972565D01*
X130058108Y-119024370D01*
X130025812Y-119067705D01*
X130023012Y-119103271D01*
X130049515Y-119143104D01*
X130105127Y-119199238D01*
X130106649Y-119200726D01*
X130139418Y-119235796D01*
X130152973Y-119256202D01*
X130164761Y-119273130D01*
X130199149Y-119311900D01*
X130248223Y-119363169D01*
X130292874Y-119412175D01*
X130329439Y-119460705D01*
X130343473Y-119491414D01*
X130347160Y-119506160D01*
X130375223Y-119523041D01*
X130389770Y-119524931D01*
X130406973Y-119539944D01*
X130415035Y-119555511D01*
X130445782Y-119594522D01*
X130491640Y-119644959D01*
X130527305Y-119684134D01*
X130562634Y-119728885D01*
X130576307Y-119755056D01*
X130576868Y-119760706D01*
X130592955Y-119777041D01*
X130609723Y-119789080D01*
X130643532Y-119826423D01*
X130684672Y-119878127D01*
X130724617Y-119932925D01*
X130754838Y-119979550D01*
X130766807Y-120006733D01*
X130771933Y-120021375D01*
X130798557Y-120052207D01*
X130810852Y-120072974D01*
X130823705Y-120129860D01*
X130830818Y-120207394D01*
X130832129Y-120293065D01*
X130827577Y-120374366D01*
X130817099Y-120438787D01*
X130800634Y-120473817D01*
X130781442Y-120496403D01*
X130758839Y-120545201D01*
X130753299Y-120558504D01*
X130718666Y-120602169D01*
X130666804Y-120644685D01*
X130645002Y-120659472D01*
X130597791Y-120694555D01*
X130572085Y-120718288D01*
X130563145Y-120723157D01*
X130518966Y-120731270D01*
X130447976Y-120736766D01*
X130360418Y-120738660D01*
X130328335Y-120738445D01*
X130252600Y-120735478D01*
X130187965Y-120726268D01*
X130128677Y-120707320D01*
X130068987Y-120675143D01*
X130003145Y-120626243D01*
X129925400Y-120557126D01*
X129830003Y-120464301D01*
X129711203Y-120344272D01*
X129625697Y-120257288D01*
X129544073Y-120174363D01*
X129476079Y-120105403D01*
X129427057Y-120055823D01*
X129402347Y-120031041D01*
X129399819Y-120028551D01*
X129337997Y-119965072D01*
X129265313Y-119886896D01*
X129197421Y-119810842D01*
X129141452Y-119746417D01*
X129081583Y-119814646D01*
X129066686Y-119830623D01*
X129022605Y-119868286D01*
X128989385Y-119883771D01*
X128983718Y-119884673D01*
X128946857Y-119906232D01*
X128905133Y-119947271D01*
X128896298Y-119957479D01*
X128856098Y-119994785D01*
X128825758Y-120009874D01*
X128815228Y-120011085D01*
X128797738Y-120025749D01*
X128793443Y-120033187D01*
X128763001Y-120059664D01*
X128713071Y-120093504D01*
X128687132Y-120110334D01*
X128645429Y-120142126D01*
X128628973Y-120162296D01*
X128628604Y-120165542D01*
X128609113Y-120179207D01*
X128601180Y-120181565D01*
X128566146Y-120204079D01*
X128519729Y-120242707D01*
X128500489Y-120259475D01*
X128455114Y-120292913D01*
X128425438Y-120306207D01*
X128412508Y-120309876D01*
X128388486Y-120337957D01*
X128379428Y-120352622D01*
X128346152Y-120369707D01*
X128330841Y-120373320D01*
X128303819Y-120401457D01*
X128294440Y-120416067D01*
X128258210Y-120433207D01*
X128257736Y-120433212D01*
X128220532Y-120448225D01*
X128178145Y-120483534D01*
X128108163Y-120542746D01*
X127996681Y-120605807D01*
X127866685Y-120655379D01*
X127731064Y-120685635D01*
X127603794Y-120695994D01*
X127465560Y-120691135D01*
X127338341Y-120670713D01*
X127228324Y-120636702D01*
X127141694Y-120591071D01*
X127084639Y-120535794D01*
X127063344Y-120472841D01*
X127058294Y-120451002D01*
X127030890Y-120412041D01*
X127026978Y-120408120D01*
X127008868Y-120366840D01*
X126999627Y-120307800D01*
X127000873Y-120250267D01*
X127014224Y-120213512D01*
X127020508Y-120204455D01*
X127040811Y-120163270D01*
X127064976Y-120104466D01*
X127066322Y-120101033D01*
X127097988Y-120041535D01*
X127148577Y-119966813D01*
X127211032Y-119885281D01*
X127278295Y-119805353D01*
X127343307Y-119735444D01*
X127399011Y-119683968D01*
X127438348Y-119659340D01*
X127468148Y-119644129D01*
X127485973Y-119615996D01*
X127487918Y-119603525D01*
X127506520Y-119586541D01*
X127529267Y-119574552D01*
X127573410Y-119540323D01*
X127628228Y-119491649D01*
X127679627Y-119445408D01*
X127723264Y-119410058D01*
X127746276Y-119396399D01*
X127747842Y-119396189D01*
X127774441Y-119379106D01*
X127812203Y-119343124D01*
X127816785Y-119338232D01*
X127851968Y-119304157D01*
X127872472Y-119290207D01*
X127891001Y-119277903D01*
X127931480Y-119243579D01*
X127984537Y-119194957D01*
X128035916Y-119148646D01*
X128080064Y-119113251D01*
X128103887Y-119099707D01*
X128109922Y-119097952D01*
X128141770Y-119075746D01*
X128184473Y-119036207D01*
X128199411Y-119021475D01*
X128240324Y-118986635D01*
X128266162Y-118972707D01*
X128277609Y-118968245D01*
X128298681Y-118939081D01*
X128300074Y-118933411D01*
X128290812Y-118892368D01*
X128262003Y-118843192D01*
X128224652Y-118801618D01*
X128189765Y-118783379D01*
X128180065Y-118781124D01*
X128162410Y-118755749D01*
X128161429Y-118750749D01*
X128139783Y-118717468D01*
X128098910Y-118677367D01*
X128089546Y-118669165D01*
X128051664Y-118624802D01*
X128036307Y-118586744D01*
X128031631Y-118564799D01*
X128004557Y-118535862D01*
X127989831Y-118527123D01*
X127972807Y-118496785D01*
X127967894Y-118478381D01*
X127941057Y-118443541D01*
X127924680Y-118424216D01*
X127909307Y-118377449D01*
X127905944Y-118355331D01*
X127889567Y-118337707D01*
X127874029Y-118327490D01*
X127855024Y-118291070D01*
X127841487Y-118259479D01*
X127811264Y-118215474D01*
X127796733Y-118195395D01*
X127782307Y-118145696D01*
X127778849Y-118122550D01*
X127762822Y-118104874D01*
X127762440Y-118104862D01*
X127744749Y-118085811D01*
X127729390Y-118041374D01*
X127729115Y-118040139D01*
X127713602Y-117996121D01*
X127695958Y-117977874D01*
X127690704Y-117977044D01*
X127676473Y-117955546D01*
X127673716Y-117941441D01*
X127657993Y-117895076D01*
X127632984Y-117833838D01*
X127618299Y-117800108D01*
X127590864Y-117736223D01*
X127572418Y-117692124D01*
X127569262Y-117684374D01*
X127547369Y-117632083D01*
X127520657Y-117569698D01*
X127490532Y-117469163D01*
X127490196Y-117370650D01*
X127521581Y-117289376D01*
X127582374Y-117231036D01*
X127670263Y-117201323D01*
X127731820Y-117199448D01*
X127826985Y-117222080D01*
X123491168Y-90574924D02*
X123390459Y-90585588D01*
X123390459Y-90585588D02*
X123310920Y-90607750D01*
X123310920Y-90607750D02*
X123242079Y-90645000D01*
X123242079Y-90645000D02*
X123173466Y-90700927D01*
X123173466Y-90700927D02*
X123132458Y-90740522D01*
X123132458Y-90740522D02*
X123053653Y-90827346D01*
X123053653Y-90827346D02*
X123000798Y-90909295D01*
X123000798Y-90909295D02*
X122969279Y-90998546D01*
X122969279Y-90998546D02*
X122954481Y-91107275D01*
X122954481Y-91107275D02*
X122951583Y-91217750D01*
X122951583Y-91217750D02*
X122956385Y-91349041D01*
X122956385Y-91349041D02*
X122973818Y-91451659D01*
X122973818Y-91451659D02*
X123009315Y-91537863D01*
X123009315Y-91537863D02*
X123068315Y-91619910D01*
X123068315Y-91619910D02*
X123156250Y-91710059D01*
X123156250Y-91710059D02*
X123179476Y-91731696D01*
X123179476Y-91731696D02*
X123248624Y-91800981D01*
X123248624Y-91800981D02*
X123310653Y-91872897D01*
X123310653Y-91872897D02*
X123354090Y-91933929D01*
X123354090Y-91933929D02*
X123359708Y-91943967D01*
X123359708Y-91943967D02*
X123391008Y-91999150D01*
X123391008Y-91999150D02*
X123417085Y-92036851D01*
X123417085Y-92036851D02*
X123425025Y-92044605D01*
X123425025Y-92044605D02*
X123439848Y-92072701D01*
X123439848Y-92072701D02*
X123444000Y-92106487D01*
X123444000Y-92106487D02*
X123455728Y-92158461D01*
X123455728Y-92158461D02*
X123472957Y-92185600D01*
X123472957Y-92185600D02*
X123503180Y-92229605D01*
X123503180Y-92229605D02*
X123516717Y-92261196D01*
X123516717Y-92261196D02*
X123535722Y-92297616D01*
X123535722Y-92297616D02*
X123551260Y-92307834D01*
X123551260Y-92307834D02*
X123566231Y-92325918D01*
X123566231Y-92325918D02*
X123571000Y-92359501D01*
X123571000Y-92359501D02*
X123578928Y-92404406D01*
X123578928Y-92404406D02*
X123592487Y-92424448D01*
X123592487Y-92424448D02*
X123614692Y-92451695D01*
X123614692Y-92451695D02*
X123640092Y-92500360D01*
X123640092Y-92500360D02*
X123642464Y-92505912D01*
X123642464Y-92505912D02*
X123670632Y-92562137D01*
X123670632Y-92562137D02*
X123699435Y-92604025D01*
X123699435Y-92604025D02*
X123700351Y-92605006D01*
X123700351Y-92605006D02*
X123736301Y-92660310D01*
X123736301Y-92660310D02*
X123759401Y-92728234D01*
X123759401Y-92728234D02*
X123763956Y-92789469D01*
X123763956Y-92789469D02*
X123759808Y-92806547D01*
X123759808Y-92806547D02*
X123737995Y-92840859D01*
X123737995Y-92840859D02*
X123694783Y-92894757D01*
X123694783Y-92894757D02*
X123638638Y-92957823D01*
X123638638Y-92957823D02*
X123625571Y-92971705D01*
X123625571Y-92971705D02*
X123570585Y-93031680D01*
X123570585Y-93031680D02*
X123529248Y-93080904D01*
X123529248Y-93080904D02*
X123508610Y-93110846D01*
X123508610Y-93110846D02*
X123507500Y-93114580D01*
X123507500Y-93114580D02*
X123490320Y-93131229D01*
X123490320Y-93131229D02*
X123475750Y-93133334D01*
X123475750Y-93133334D02*
X123447567Y-93143751D01*
X123447567Y-93143751D02*
X123444000Y-93152595D01*
X123444000Y-93152595D02*
X123430079Y-93174904D01*
X123430079Y-93174904D02*
X123392487Y-93219936D01*
X123392487Y-93219936D02*
X123337479Y-93280473D01*
X123337479Y-93280473D02*
X123290541Y-93329670D01*
X123290541Y-93329670D02*
X123122614Y-93503389D01*
X123122614Y-93503389D02*
X122978985Y-93654121D01*
X122978985Y-93654121D02*
X122860707Y-93780714D01*
X122860707Y-93780714D02*
X122768828Y-93882018D01*
X122768828Y-93882018D02*
X122704398Y-93956879D01*
X122704398Y-93956879D02*
X122668467Y-94004147D01*
X122668467Y-94004147D02*
X122660833Y-94020360D01*
X122660833Y-94020360D02*
X122645277Y-94049468D01*
X122645277Y-94049468D02*
X122634375Y-94058323D01*
X122634375Y-94058323D02*
X122597435Y-94099231D01*
X122597435Y-94099231D02*
X122563243Y-94164556D01*
X122563243Y-94164556D02*
X122539674Y-94236692D01*
X122539674Y-94236692D02*
X122533703Y-94283341D01*
X122533703Y-94283341D02*
X122523222Y-94352843D01*
X122523222Y-94352843D02*
X122501953Y-94411045D01*
X122501953Y-94411045D02*
X122481139Y-94478742D01*
X122481139Y-94478742D02*
X122470031Y-94573912D01*
X122470031Y-94573912D02*
X122468323Y-94682896D01*
X122468323Y-94682896D02*
X122475708Y-94792034D01*
X122475708Y-94792034D02*
X122491883Y-94887666D01*
X122491883Y-94887666D02*
X122514040Y-94951551D01*
X122514040Y-94951551D02*
X122557758Y-95016222D01*
X122557758Y-95016222D02*
X122615109Y-95076455D01*
X122615109Y-95076455D02*
X122674783Y-95122266D01*
X122674783Y-95122266D02*
X122725469Y-95143673D01*
X122725469Y-95143673D02*
X122732255Y-95144167D01*
X122732255Y-95144167D02*
X122768895Y-95156526D01*
X122768895Y-95156526D02*
X122777250Y-95165334D01*
X122777250Y-95165334D02*
X122803536Y-95175938D01*
X122803536Y-95175938D02*
X122860008Y-95183532D01*
X122860008Y-95183532D02*
X122934543Y-95186499D01*
X122934543Y-95186499D02*
X122936000Y-95186500D01*
X122936000Y-95186500D02*
X123010752Y-95183633D01*
X123010752Y-95183633D02*
X123067664Y-95176109D01*
X123067664Y-95176109D02*
X123094612Y-95165545D01*
X123094612Y-95165545D02*
X123094750Y-95165334D01*
X123094750Y-95165334D02*
X123122958Y-95150896D01*
X123122958Y-95150896D02*
X123174022Y-95144221D01*
X123174022Y-95144221D02*
X123179154Y-95144167D01*
X123179154Y-95144167D02*
X123238004Y-95135099D01*
X123238004Y-95135099D02*
X123281416Y-95113205D01*
X123281416Y-95113205D02*
X123282226Y-95112417D01*
X123282226Y-95112417D02*
X123323338Y-95086080D01*
X123323338Y-95086080D02*
X123347315Y-95080667D01*
X123347315Y-95080667D02*
X123392742Y-95069872D01*
X123392742Y-95069872D02*
X123453204Y-95042323D01*
X123453204Y-95042323D02*
X123516924Y-95005275D01*
X123516924Y-95005275D02*
X123572125Y-94965979D01*
X123572125Y-94965979D02*
X123607029Y-94931692D01*
X123607029Y-94931692D02*
X123613333Y-94916825D01*
X123613333Y-94916825D02*
X123630181Y-94892699D01*
X123630181Y-94892699D02*
X123642592Y-94890167D01*
X123642592Y-94890167D02*
X123668293Y-94875261D01*
X123668293Y-94875261D02*
X123714291Y-94835058D01*
X123714291Y-94835058D02*
X123773247Y-94776329D01*
X123773247Y-94776329D02*
X123817217Y-94729022D01*
X123817217Y-94729022D02*
X123881952Y-94657277D01*
X123881952Y-94657277D02*
X123938793Y-94594312D01*
X123938793Y-94594312D02*
X123979959Y-94548743D01*
X123979959Y-94548743D02*
X123994333Y-94532858D01*
X123994333Y-94532858D02*
X124025042Y-94496708D01*
X124025042Y-94496708D02*
X124069597Y-94441721D01*
X124069597Y-94441721D02*
X124100166Y-94403019D01*
X124100166Y-94403019D02*
X124160985Y-94329816D01*
X124160985Y-94329816D02*
X124230674Y-94252383D01*
X124230674Y-94252383D02*
X124261459Y-94220376D01*
X124261459Y-94220376D02*
X124322614Y-94155521D01*
X124322614Y-94155521D02*
X124381514Y-94087874D01*
X124381514Y-94087874D02*
X124406715Y-94056448D01*
X124406715Y-94056448D02*
X124464762Y-93980345D01*
X124464762Y-93980345D02*
X124509244Y-94038381D01*
X124509244Y-94038381D02*
X124547526Y-94083156D01*
X124547526Y-94083156D02*
X124579606Y-94112476D01*
X124579606Y-94112476D02*
X124580947Y-94113344D01*
X124580947Y-94113344D02*
X124605772Y-94147318D01*
X124605772Y-94147318D02*
X124608166Y-94161633D01*
X124608166Y-94161633D02*
X124625273Y-94196002D01*
X124625273Y-94196002D02*
X124639916Y-94205179D01*
X124639916Y-94205179D02*
X124668048Y-94231830D01*
X124668048Y-94231830D02*
X124671666Y-94246848D01*
X124671666Y-94246848D02*
X124682827Y-94273545D01*
X124682827Y-94273545D02*
X124691018Y-94276334D01*
X124691018Y-94276334D02*
X124711748Y-94292966D01*
X124711748Y-94292966D02*
X124745229Y-94335958D01*
X124745229Y-94335958D02*
X124773944Y-94379657D01*
X124773944Y-94379657D02*
X124822702Y-94451755D01*
X124822702Y-94451755D02*
X124875850Y-94519939D01*
X124875850Y-94519939D02*
X124900991Y-94547911D01*
X124900991Y-94547911D02*
X124944467Y-94599105D01*
X124944467Y-94599105D02*
X124974183Y-94646221D01*
X124974183Y-94646221D02*
X124978240Y-94656253D01*
X124978240Y-94656253D02*
X124997235Y-94691028D01*
X124997235Y-94691028D02*
X125011760Y-94699667D01*
X125011760Y-94699667D02*
X125029280Y-94716832D01*
X125029280Y-94716832D02*
X125031500Y-94731417D01*
X125031500Y-94731417D02*
X125048443Y-94759479D01*
X125048443Y-94759479D02*
X125063250Y-94763167D01*
X125063250Y-94763167D02*
X125089965Y-94780519D01*
X125089965Y-94780519D02*
X125095000Y-94800783D01*
X125095000Y-94800783D02*
X125108578Y-94838829D01*
X125108578Y-94838829D02*
X125142645Y-94889369D01*
X125142645Y-94889369D02*
X125158500Y-94907923D01*
X125158500Y-94907923D02*
X125197064Y-94953786D01*
X125197064Y-94953786D02*
X125219598Y-94987626D01*
X125219598Y-94987626D02*
X125222000Y-94995042D01*
X125222000Y-94995042D02*
X125238812Y-95017006D01*
X125238812Y-95017006D02*
X125253750Y-95024821D01*
X125253750Y-95024821D02*
X125281829Y-95048726D01*
X125281829Y-95048726D02*
X125285500Y-95061562D01*
X125285500Y-95061562D02*
X125298441Y-95090801D01*
X125298441Y-95090801D02*
X125331374Y-95137690D01*
X125331374Y-95137690D02*
X125354291Y-95165565D01*
X125354291Y-95165565D02*
X125452984Y-95280512D01*
X125452984Y-95280512D02*
X125529795Y-95372042D01*
X125529795Y-95372042D02*
X125582555Y-95437524D01*
X125582555Y-95437524D02*
X125609092Y-95474328D01*
X125609092Y-95474328D02*
X125609343Y-95474758D01*
X125609343Y-95474758D02*
X125642042Y-95500979D01*
X125642042Y-95500979D02*
X125657633Y-95504000D01*
X125657633Y-95504000D02*
X125692002Y-95521107D01*
X125692002Y-95521107D02*
X125701179Y-95535750D01*
X125701179Y-95535750D02*
X125722789Y-95563779D01*
X125722789Y-95563779D02*
X125733776Y-95567500D01*
X125733776Y-95567500D02*
X125763985Y-95581020D01*
X125763985Y-95581020D02*
X125785940Y-95599250D01*
X125785940Y-95599250D02*
X125823044Y-95618345D01*
X125823044Y-95618345D02*
X125890681Y-95628543D01*
X125890681Y-95628543D02*
X125973416Y-95631000D01*
X125973416Y-95631000D02*
X126070742Y-95627328D01*
X126070742Y-95627328D02*
X126132476Y-95615618D01*
X126132476Y-95615618D02*
X126160893Y-95599250D01*
X126160893Y-95599250D02*
X126191438Y-95573556D01*
X126191438Y-95573556D02*
X126204353Y-95567500D01*
X126204353Y-95567500D02*
X126225031Y-95554013D01*
X126225031Y-95554013D02*
X126264635Y-95519656D01*
X126264635Y-95519656D02*
X126290531Y-95495182D01*
X126290531Y-95495182D02*
X126343836Y-95431470D01*
X126343836Y-95431470D02*
X126364280Y-95372067D01*
X126364280Y-95372067D02*
X126365000Y-95357311D01*
X126365000Y-95357311D02*
X126373492Y-95295550D01*
X126373492Y-95295550D02*
X126391258Y-95249713D01*
X126391258Y-95249713D02*
X126406917Y-95206458D01*
X126406917Y-95206458D02*
X126391258Y-95165621D01*
X126391258Y-95165621D02*
X126374769Y-95118378D01*
X126374769Y-95118378D02*
X126365642Y-95051745D01*
X126365642Y-95051745D02*
X126365000Y-95030210D01*
X126365000Y-95030210D02*
X126347873Y-94924660D01*
X126347873Y-94924660D02*
X126301500Y-94808860D01*
X126301500Y-94808860D02*
X126269274Y-94741000D01*
X126269274Y-94741000D02*
X126246421Y-94687326D01*
X126246421Y-94687326D02*
X126238000Y-94659997D01*
X126238000Y-94659997D02*
X126229223Y-94626264D01*
X126229223Y-94626264D02*
X126206685Y-94570997D01*
X126206685Y-94570997D02*
X126176072Y-94505606D01*
X126176072Y-94505606D02*
X126143070Y-94441501D01*
X126143070Y-94441501D02*
X126113368Y-94390092D01*
X126113368Y-94390092D02*
X126092651Y-94362787D01*
X126092651Y-94362787D02*
X126088969Y-94361000D01*
X126088969Y-94361000D02*
X126074350Y-94342700D01*
X126074350Y-94342700D02*
X126068666Y-94301546D01*
X126068666Y-94301546D02*
X126057582Y-94241462D01*
X126057582Y-94241462D02*
X126037590Y-94201004D01*
X126037590Y-94201004D02*
X126012542Y-94153226D01*
X126012542Y-94153226D02*
X126005840Y-94122211D01*
X126005840Y-94122211D02*
X125989621Y-94083754D01*
X125989621Y-94083754D02*
X125973416Y-94072321D01*
X125973416Y-94072321D02*
X125949795Y-94043894D01*
X125949795Y-94043894D02*
X125941666Y-94000414D01*
X125941666Y-94000414D02*
X125930801Y-93944657D01*
X125930801Y-93944657D02*
X125909916Y-93908941D01*
X125909916Y-93908941D02*
X125883354Y-93863652D01*
X125883354Y-93863652D02*
X125878166Y-93835937D01*
X125878166Y-93835937D02*
X125862732Y-93787777D01*
X125862732Y-93787777D02*
X125846416Y-93768334D01*
X125846416Y-93768334D02*
X125819312Y-93727975D01*
X125819312Y-93727975D02*
X125814666Y-93704834D01*
X125814666Y-93704834D02*
X125799400Y-93660448D01*
X125799400Y-93660448D02*
X125782916Y-93641334D01*
X125782916Y-93641334D02*
X125756177Y-93599089D01*
X125756177Y-93599089D02*
X125751166Y-93571623D01*
X125751166Y-93571623D02*
X125742213Y-93532514D01*
X125742213Y-93532514D02*
X125718340Y-93466500D01*
X125718340Y-93466500D02*
X125684033Y-93384300D01*
X125684033Y-93384300D02*
X125643774Y-93296634D01*
X125643774Y-93296634D02*
X125602048Y-93214222D01*
X125602048Y-93214222D02*
X125600396Y-93211156D01*
X125600396Y-93211156D02*
X125577585Y-93168289D01*
X125577585Y-93168289D02*
X125546145Y-93108468D01*
X125546145Y-93108468D02*
X125536214Y-93089447D01*
X125536214Y-93089447D02*
X125506053Y-93039095D01*
X125506053Y-93039095D02*
X125480793Y-93009565D01*
X125480793Y-93009565D02*
X125473863Y-93006334D01*
X125473863Y-93006334D02*
X125461885Y-92987565D01*
X125461885Y-92987565D02*
X125455282Y-92940747D01*
X125455282Y-92940747D02*
X125454833Y-92922703D01*
X125454833Y-92922703D02*
X125457736Y-92880915D01*
X125457736Y-92880915D02*
X125470181Y-92843680D01*
X125470181Y-92843680D02*
X125497777Y-92802146D01*
X125497777Y-92802146D02*
X125546131Y-92747461D01*
X125546131Y-92747461D02*
X125603000Y-92688834D01*
X125603000Y-92688834D02*
X125665647Y-92623946D01*
X125665647Y-92623946D02*
X125715258Y-92569966D01*
X125715258Y-92569966D02*
X125745408Y-92534034D01*
X125745408Y-92534034D02*
X125751525Y-92523756D01*
X125751525Y-92523756D02*
X125765153Y-92501833D01*
X125765153Y-92501833D02*
X125800429Y-92459013D01*
X125800429Y-92459013D02*
X125846775Y-92407755D01*
X125846775Y-92407755D02*
X125895448Y-92352937D01*
X125895448Y-92352937D02*
X125929677Y-92308794D01*
X125929677Y-92308794D02*
X125941666Y-92286046D01*
X125941666Y-92286046D02*
X125958820Y-92267815D01*
X125958820Y-92267815D02*
X125973416Y-92265500D01*
X125973416Y-92265500D02*
X126001590Y-92254458D01*
X126001590Y-92254458D02*
X126005166Y-92245063D01*
X126005166Y-92245063D02*
X126018687Y-92217962D01*
X126018687Y-92217962D02*
X126052272Y-92176078D01*
X126052272Y-92176078D02*
X126063375Y-92164171D01*
X126063375Y-92164171D02*
X126135866Y-92084861D01*
X126135866Y-92084861D02*
X126192602Y-92014862D01*
X126192602Y-92014862D02*
X126228248Y-91961193D01*
X126228248Y-91961193D02*
X126238000Y-91934388D01*
X126238000Y-91934388D02*
X126253794Y-91899937D01*
X126253794Y-91899937D02*
X126264458Y-91890844D01*
X126264458Y-91890844D02*
X126308667Y-91840355D01*
X126308667Y-91840355D02*
X126341502Y-91759285D01*
X126341502Y-91759285D02*
X126361993Y-91658089D01*
X126361993Y-91658089D02*
X126369168Y-91547221D01*
X126369168Y-91547221D02*
X126362058Y-91437136D01*
X126362058Y-91437136D02*
X126339691Y-91338288D01*
X126339691Y-91338288D02*
X126320098Y-91291657D01*
X126320098Y-91291657D02*
X126277892Y-91223655D01*
X126277892Y-91223655D02*
X126225528Y-91157144D01*
X126225528Y-91157144D02*
X126171816Y-91101584D01*
X126171816Y-91101584D02*
X126125564Y-91066430D01*
X126125564Y-91066430D02*
X126103382Y-91059000D01*
X126103382Y-91059000D02*
X126065128Y-91044078D01*
X126065128Y-91044078D02*
X126049994Y-91030255D01*
X126049994Y-91030255D02*
X126012962Y-91010195D01*
X126012962Y-91010195D02*
X125947447Y-90996448D01*
X125947447Y-90996448D02*
X125863939Y-90988925D01*
X125863939Y-90988925D02*
X125772926Y-90987535D01*
X125772926Y-90987535D02*
X125684899Y-90992190D01*
X125684899Y-90992190D02*
X125610347Y-91002799D01*
X125610347Y-91002799D02*
X125559761Y-91019273D01*
X125559761Y-91019273D02*
X125544113Y-91034578D01*
X125544113Y-91034578D02*
X125519014Y-91054671D01*
X125519014Y-91054671D02*
X125493502Y-91059000D01*
X125493502Y-91059000D02*
X125451206Y-91072662D01*
X125451206Y-91072662D02*
X125399419Y-91106554D01*
X125399419Y-91106554D02*
X125386976Y-91117209D01*
X125386976Y-91117209D02*
X125335783Y-91164972D01*
X125335783Y-91164972D02*
X125270499Y-91227669D01*
X125270499Y-91227669D02*
X125197261Y-91299183D01*
X125197261Y-91299183D02*
X125122209Y-91373400D01*
X125122209Y-91373400D02*
X125051480Y-91444202D01*
X125051480Y-91444202D02*
X124991214Y-91505474D01*
X124991214Y-91505474D02*
X124947550Y-91551099D01*
X124947550Y-91551099D02*
X124926625Y-91574962D01*
X124926625Y-91574962D02*
X124925666Y-91576823D01*
X124925666Y-91576823D02*
X124912010Y-91596208D01*
X124912010Y-91596208D02*
X124877180Y-91634627D01*
X124877180Y-91634627D02*
X124851583Y-91660839D01*
X124851583Y-91660839D02*
X124806467Y-91700707D01*
X124806467Y-91700707D02*
X124781308Y-91711295D01*
X124781308Y-91711295D02*
X124777500Y-91703878D01*
X124777500Y-91703878D02*
X124760541Y-91676431D01*
X124760541Y-91676431D02*
X124745750Y-91672834D01*
X124745750Y-91672834D02*
X124720252Y-91654372D01*
X124720252Y-91654372D02*
X124714000Y-91618773D01*
X124714000Y-91618773D02*
X124703953Y-91570720D01*
X124703953Y-91570720D02*
X124678065Y-91503955D01*
X124678065Y-91503955D02*
X124653588Y-91454731D01*
X124653588Y-91454731D02*
X124611517Y-91372191D01*
X124611517Y-91372191D02*
X124571790Y-91284711D01*
X124571790Y-91284711D02*
X124555455Y-91244188D01*
X124555455Y-91244188D02*
X124522437Y-91172399D01*
X124522437Y-91172399D02*
X124483218Y-91108785D01*
X124483218Y-91108785D02*
X124467700Y-91089639D01*
X124467700Y-91089639D02*
X124433577Y-91044245D01*
X124433577Y-91044245D02*
X124417795Y-91006345D01*
X124417795Y-91006345D02*
X124417666Y-91003929D01*
X124417666Y-91003929D02*
X124401275Y-90966397D01*
X124401275Y-90966397D02*
X124357179Y-90912312D01*
X124357179Y-90912312D02*
X124292992Y-90848457D01*
X124292992Y-90848457D02*
X124216332Y-90781615D01*
X124216332Y-90781615D02*
X124134814Y-90718568D01*
X124134814Y-90718568D02*
X124056054Y-90666099D01*
X124056054Y-90666099D02*
X124010110Y-90640959D01*
X124010110Y-90640959D02*
X123946110Y-90611103D01*
X123946110Y-90611103D02*
X123893245Y-90591419D01*
X123893245Y-90591419D02*
X123839658Y-90579796D01*
X123839658Y-90579796D02*
X123773494Y-90574126D01*
X123773494Y-90574126D02*
X123682900Y-90572299D01*
X123682900Y-90572299D02*
X123623519Y-90572167D01*
X123623519Y-90572167D02*
X123491168Y-90574924D01*
X123491168Y-90574924D02*
X123491168Y-90574924D01*
G36*
X123682900Y-90572299D02*
G01*
X123773494Y-90574126D01*
X123839658Y-90579796D01*
X123893245Y-90591419D01*
X123946110Y-90611103D01*
X124010110Y-90640959D01*
X124056054Y-90666099D01*
X124134814Y-90718568D01*
X124216332Y-90781615D01*
X124292992Y-90848457D01*
X124357179Y-90912312D01*
X124401275Y-90966397D01*
X124417666Y-91003929D01*
X124417795Y-91006345D01*
X124433577Y-91044245D01*
X124467700Y-91089639D01*
X124483218Y-91108785D01*
X124522437Y-91172399D01*
X124555455Y-91244188D01*
X124571790Y-91284711D01*
X124611517Y-91372191D01*
X124653588Y-91454731D01*
X124678065Y-91503955D01*
X124703953Y-91570720D01*
X124714000Y-91618773D01*
X124720252Y-91654372D01*
X124745750Y-91672834D01*
X124760541Y-91676431D01*
X124777500Y-91703878D01*
X124781308Y-91711295D01*
X124806467Y-91700707D01*
X124851583Y-91660839D01*
X124877180Y-91634627D01*
X124912010Y-91596208D01*
X124925666Y-91576823D01*
X124926625Y-91574962D01*
X124947550Y-91551099D01*
X124991214Y-91505474D01*
X125051480Y-91444202D01*
X125122209Y-91373400D01*
X125197261Y-91299183D01*
X125270499Y-91227669D01*
X125335783Y-91164972D01*
X125386976Y-91117209D01*
X125399419Y-91106554D01*
X125451206Y-91072662D01*
X125493502Y-91059000D01*
X125519014Y-91054671D01*
X125544113Y-91034578D01*
X125559761Y-91019273D01*
X125610347Y-91002799D01*
X125684899Y-90992190D01*
X125772926Y-90987535D01*
X125863939Y-90988925D01*
X125947447Y-90996448D01*
X126012962Y-91010195D01*
X126049994Y-91030255D01*
X126065128Y-91044078D01*
X126103382Y-91059000D01*
X126125564Y-91066430D01*
X126171816Y-91101584D01*
X126225528Y-91157144D01*
X126277892Y-91223655D01*
X126320098Y-91291657D01*
X126339691Y-91338288D01*
X126362058Y-91437136D01*
X126369168Y-91547221D01*
X126361993Y-91658089D01*
X126341502Y-91759285D01*
X126308667Y-91840355D01*
X126264458Y-91890844D01*
X126253794Y-91899937D01*
X126238000Y-91934388D01*
X126228248Y-91961193D01*
X126192602Y-92014862D01*
X126135866Y-92084861D01*
X126063375Y-92164171D01*
X126052272Y-92176078D01*
X126018687Y-92217962D01*
X126005166Y-92245063D01*
X126001590Y-92254458D01*
X125973416Y-92265500D01*
X125958820Y-92267815D01*
X125941666Y-92286046D01*
X125929677Y-92308794D01*
X125895448Y-92352937D01*
X125846775Y-92407755D01*
X125800429Y-92459013D01*
X125765153Y-92501833D01*
X125751525Y-92523756D01*
X125745408Y-92534034D01*
X125715258Y-92569966D01*
X125665647Y-92623946D01*
X125603000Y-92688834D01*
X125546131Y-92747461D01*
X125497777Y-92802146D01*
X125470181Y-92843680D01*
X125457736Y-92880915D01*
X125454833Y-92922703D01*
X125455282Y-92940747D01*
X125461885Y-92987565D01*
X125473863Y-93006334D01*
X125480793Y-93009565D01*
X125506053Y-93039095D01*
X125536214Y-93089447D01*
X125546145Y-93108468D01*
X125577585Y-93168289D01*
X125600396Y-93211156D01*
X125602048Y-93214222D01*
X125643774Y-93296634D01*
X125684033Y-93384300D01*
X125718340Y-93466500D01*
X125742213Y-93532514D01*
X125751166Y-93571623D01*
X125756177Y-93599089D01*
X125782916Y-93641334D01*
X125799400Y-93660448D01*
X125814666Y-93704834D01*
X125819312Y-93727975D01*
X125846416Y-93768334D01*
X125862732Y-93787777D01*
X125878166Y-93835937D01*
X125883354Y-93863652D01*
X125909916Y-93908941D01*
X125930801Y-93944657D01*
X125941666Y-94000414D01*
X125949795Y-94043894D01*
X125973416Y-94072321D01*
X125989621Y-94083754D01*
X126005840Y-94122211D01*
X126012542Y-94153226D01*
X126037590Y-94201004D01*
X126057582Y-94241462D01*
X126068666Y-94301546D01*
X126074350Y-94342700D01*
X126088969Y-94361000D01*
X126092651Y-94362787D01*
X126113368Y-94390092D01*
X126143070Y-94441501D01*
X126176072Y-94505606D01*
X126206685Y-94570997D01*
X126229223Y-94626264D01*
X126238000Y-94659997D01*
X126246421Y-94687326D01*
X126269274Y-94741000D01*
X126301500Y-94808860D01*
X126347873Y-94924660D01*
X126365000Y-95030210D01*
X126365642Y-95051745D01*
X126374769Y-95118378D01*
X126391258Y-95165621D01*
X126406917Y-95206458D01*
X126391258Y-95249713D01*
X126373492Y-95295550D01*
X126365000Y-95357311D01*
X126364280Y-95372067D01*
X126343836Y-95431470D01*
X126290531Y-95495182D01*
X126264635Y-95519656D01*
X126225031Y-95554013D01*
X126204353Y-95567500D01*
X126191438Y-95573556D01*
X126160893Y-95599250D01*
X126132476Y-95615618D01*
X126070742Y-95627328D01*
X125973416Y-95631000D01*
X125890681Y-95628543D01*
X125823044Y-95618345D01*
X125785940Y-95599250D01*
X125763985Y-95581020D01*
X125733776Y-95567500D01*
X125722789Y-95563779D01*
X125701179Y-95535750D01*
X125692002Y-95521107D01*
X125657633Y-95504000D01*
X125642042Y-95500979D01*
X125609343Y-95474758D01*
X125609092Y-95474328D01*
X125582555Y-95437524D01*
X125529795Y-95372042D01*
X125452984Y-95280512D01*
X125354291Y-95165565D01*
X125331374Y-95137690D01*
X125298441Y-95090801D01*
X125285500Y-95061562D01*
X125281829Y-95048726D01*
X125253750Y-95024821D01*
X125238812Y-95017006D01*
X125222000Y-94995042D01*
X125219598Y-94987626D01*
X125197064Y-94953786D01*
X125158500Y-94907923D01*
X125142645Y-94889369D01*
X125108578Y-94838829D01*
X125095000Y-94800783D01*
X125089965Y-94780519D01*
X125063250Y-94763167D01*
X125048443Y-94759479D01*
X125031500Y-94731417D01*
X125029280Y-94716832D01*
X125011760Y-94699667D01*
X124997235Y-94691028D01*
X124978240Y-94656253D01*
X124974183Y-94646221D01*
X124944467Y-94599105D01*
X124900991Y-94547911D01*
X124875850Y-94519939D01*
X124822702Y-94451755D01*
X124773944Y-94379657D01*
X124745229Y-94335958D01*
X124711748Y-94292966D01*
X124691018Y-94276334D01*
X124682827Y-94273545D01*
X124671666Y-94246848D01*
X124668048Y-94231830D01*
X124639916Y-94205179D01*
X124625273Y-94196002D01*
X124608166Y-94161633D01*
X124605772Y-94147318D01*
X124580947Y-94113344D01*
X124579606Y-94112476D01*
X124547526Y-94083156D01*
X124509244Y-94038381D01*
X124464762Y-93980345D01*
X124406715Y-94056448D01*
X124381514Y-94087874D01*
X124322614Y-94155521D01*
X124261459Y-94220376D01*
X124230674Y-94252383D01*
X124160985Y-94329816D01*
X124100166Y-94403019D01*
X124069597Y-94441721D01*
X124025042Y-94496708D01*
X123994333Y-94532858D01*
X123979959Y-94548743D01*
X123938793Y-94594312D01*
X123881952Y-94657277D01*
X123817217Y-94729022D01*
X123773247Y-94776329D01*
X123714291Y-94835058D01*
X123668293Y-94875261D01*
X123642592Y-94890167D01*
X123630181Y-94892699D01*
X123613333Y-94916825D01*
X123607029Y-94931692D01*
X123572125Y-94965979D01*
X123516924Y-95005275D01*
X123453204Y-95042323D01*
X123392742Y-95069872D01*
X123347315Y-95080667D01*
X123323338Y-95086080D01*
X123282226Y-95112417D01*
X123281416Y-95113205D01*
X123238004Y-95135099D01*
X123179154Y-95144167D01*
X123174022Y-95144221D01*
X123122958Y-95150896D01*
X123094750Y-95165334D01*
X123094612Y-95165545D01*
X123067664Y-95176109D01*
X123010752Y-95183633D01*
X122936000Y-95186500D01*
X122934543Y-95186499D01*
X122860008Y-95183532D01*
X122803536Y-95175938D01*
X122777250Y-95165334D01*
X122768895Y-95156526D01*
X122732255Y-95144167D01*
X122725469Y-95143673D01*
X122674783Y-95122266D01*
X122615109Y-95076455D01*
X122557758Y-95016222D01*
X122514040Y-94951551D01*
X122491883Y-94887666D01*
X122475708Y-94792034D01*
X122468323Y-94682896D01*
X122470031Y-94573912D01*
X122481139Y-94478742D01*
X122501953Y-94411045D01*
X122523222Y-94352843D01*
X122533703Y-94283341D01*
X122539674Y-94236692D01*
X122563243Y-94164556D01*
X122597435Y-94099231D01*
X122634375Y-94058323D01*
X122645277Y-94049468D01*
X122660833Y-94020360D01*
X122668467Y-94004147D01*
X122704398Y-93956879D01*
X122768828Y-93882018D01*
X122860707Y-93780714D01*
X122978985Y-93654121D01*
X123122614Y-93503389D01*
X123290541Y-93329670D01*
X123337479Y-93280473D01*
X123392487Y-93219936D01*
X123430079Y-93174904D01*
X123444000Y-93152595D01*
X123447567Y-93143751D01*
X123475750Y-93133334D01*
X123490320Y-93131229D01*
X123507500Y-93114580D01*
X123508610Y-93110846D01*
X123529248Y-93080904D01*
X123570585Y-93031680D01*
X123625571Y-92971705D01*
X123638638Y-92957823D01*
X123694783Y-92894757D01*
X123737995Y-92840859D01*
X123759808Y-92806547D01*
X123763956Y-92789469D01*
X123759401Y-92728234D01*
X123736301Y-92660310D01*
X123700351Y-92605006D01*
X123699435Y-92604025D01*
X123670632Y-92562137D01*
X123642464Y-92505912D01*
X123640092Y-92500360D01*
X123614692Y-92451695D01*
X123592487Y-92424448D01*
X123578928Y-92404406D01*
X123571000Y-92359501D01*
X123566231Y-92325918D01*
X123551260Y-92307834D01*
X123535722Y-92297616D01*
X123516717Y-92261196D01*
X123503180Y-92229605D01*
X123472957Y-92185600D01*
X123455728Y-92158461D01*
X123444000Y-92106487D01*
X123439848Y-92072701D01*
X123425025Y-92044605D01*
X123417085Y-92036851D01*
X123391008Y-91999150D01*
X123359708Y-91943967D01*
X123354090Y-91933929D01*
X123310653Y-91872897D01*
X123248624Y-91800981D01*
X123179476Y-91731696D01*
X123156250Y-91710059D01*
X123068315Y-91619910D01*
X123009315Y-91537863D01*
X122973818Y-91451659D01*
X122956385Y-91349041D01*
X122951583Y-91217750D01*
X122954481Y-91107275D01*
X122969279Y-90998546D01*
X123000798Y-90909295D01*
X123053653Y-90827346D01*
X123132458Y-90740522D01*
X123173466Y-90700927D01*
X123242079Y-90645000D01*
X123310920Y-90607750D01*
X123390459Y-90585588D01*
X123491168Y-90574924D01*
X123623519Y-90572167D01*
X123682900Y-90572299D01*
G37*
X123682900Y-90572299D02*
X123773494Y-90574126D01*
X123839658Y-90579796D01*
X123893245Y-90591419D01*
X123946110Y-90611103D01*
X124010110Y-90640959D01*
X124056054Y-90666099D01*
X124134814Y-90718568D01*
X124216332Y-90781615D01*
X124292992Y-90848457D01*
X124357179Y-90912312D01*
X124401275Y-90966397D01*
X124417666Y-91003929D01*
X124417795Y-91006345D01*
X124433577Y-91044245D01*
X124467700Y-91089639D01*
X124483218Y-91108785D01*
X124522437Y-91172399D01*
X124555455Y-91244188D01*
X124571790Y-91284711D01*
X124611517Y-91372191D01*
X124653588Y-91454731D01*
X124678065Y-91503955D01*
X124703953Y-91570720D01*
X124714000Y-91618773D01*
X124720252Y-91654372D01*
X124745750Y-91672834D01*
X124760541Y-91676431D01*
X124777500Y-91703878D01*
X124781308Y-91711295D01*
X124806467Y-91700707D01*
X124851583Y-91660839D01*
X124877180Y-91634627D01*
X124912010Y-91596208D01*
X124925666Y-91576823D01*
X124926625Y-91574962D01*
X124947550Y-91551099D01*
X124991214Y-91505474D01*
X125051480Y-91444202D01*
X125122209Y-91373400D01*
X125197261Y-91299183D01*
X125270499Y-91227669D01*
X125335783Y-91164972D01*
X125386976Y-91117209D01*
X125399419Y-91106554D01*
X125451206Y-91072662D01*
X125493502Y-91059000D01*
X125519014Y-91054671D01*
X125544113Y-91034578D01*
X125559761Y-91019273D01*
X125610347Y-91002799D01*
X125684899Y-90992190D01*
X125772926Y-90987535D01*
X125863939Y-90988925D01*
X125947447Y-90996448D01*
X126012962Y-91010195D01*
X126049994Y-91030255D01*
X126065128Y-91044078D01*
X126103382Y-91059000D01*
X126125564Y-91066430D01*
X126171816Y-91101584D01*
X126225528Y-91157144D01*
X126277892Y-91223655D01*
X126320098Y-91291657D01*
X126339691Y-91338288D01*
X126362058Y-91437136D01*
X126369168Y-91547221D01*
X126361993Y-91658089D01*
X126341502Y-91759285D01*
X126308667Y-91840355D01*
X126264458Y-91890844D01*
X126253794Y-91899937D01*
X126238000Y-91934388D01*
X126228248Y-91961193D01*
X126192602Y-92014862D01*
X126135866Y-92084861D01*
X126063375Y-92164171D01*
X126052272Y-92176078D01*
X126018687Y-92217962D01*
X126005166Y-92245063D01*
X126001590Y-92254458D01*
X125973416Y-92265500D01*
X125958820Y-92267815D01*
X125941666Y-92286046D01*
X125929677Y-92308794D01*
X125895448Y-92352937D01*
X125846775Y-92407755D01*
X125800429Y-92459013D01*
X125765153Y-92501833D01*
X125751525Y-92523756D01*
X125745408Y-92534034D01*
X125715258Y-92569966D01*
X125665647Y-92623946D01*
X125603000Y-92688834D01*
X125546131Y-92747461D01*
X125497777Y-92802146D01*
X125470181Y-92843680D01*
X125457736Y-92880915D01*
X125454833Y-92922703D01*
X125455282Y-92940747D01*
X125461885Y-92987565D01*
X125473863Y-93006334D01*
X125480793Y-93009565D01*
X125506053Y-93039095D01*
X125536214Y-93089447D01*
X125546145Y-93108468D01*
X125577585Y-93168289D01*
X125600396Y-93211156D01*
X125602048Y-93214222D01*
X125643774Y-93296634D01*
X125684033Y-93384300D01*
X125718340Y-93466500D01*
X125742213Y-93532514D01*
X125751166Y-93571623D01*
X125756177Y-93599089D01*
X125782916Y-93641334D01*
X125799400Y-93660448D01*
X125814666Y-93704834D01*
X125819312Y-93727975D01*
X125846416Y-93768334D01*
X125862732Y-93787777D01*
X125878166Y-93835937D01*
X125883354Y-93863652D01*
X125909916Y-93908941D01*
X125930801Y-93944657D01*
X125941666Y-94000414D01*
X125949795Y-94043894D01*
X125973416Y-94072321D01*
X125989621Y-94083754D01*
X126005840Y-94122211D01*
X126012542Y-94153226D01*
X126037590Y-94201004D01*
X126057582Y-94241462D01*
X126068666Y-94301546D01*
X126074350Y-94342700D01*
X126088969Y-94361000D01*
X126092651Y-94362787D01*
X126113368Y-94390092D01*
X126143070Y-94441501D01*
X126176072Y-94505606D01*
X126206685Y-94570997D01*
X126229223Y-94626264D01*
X126238000Y-94659997D01*
X126246421Y-94687326D01*
X126269274Y-94741000D01*
X126301500Y-94808860D01*
X126347873Y-94924660D01*
X126365000Y-95030210D01*
X126365642Y-95051745D01*
X126374769Y-95118378D01*
X126391258Y-95165621D01*
X126406917Y-95206458D01*
X126391258Y-95249713D01*
X126373492Y-95295550D01*
X126365000Y-95357311D01*
X126364280Y-95372067D01*
X126343836Y-95431470D01*
X126290531Y-95495182D01*
X126264635Y-95519656D01*
X126225031Y-95554013D01*
X126204353Y-95567500D01*
X126191438Y-95573556D01*
X126160893Y-95599250D01*
X126132476Y-95615618D01*
X126070742Y-95627328D01*
X125973416Y-95631000D01*
X125890681Y-95628543D01*
X125823044Y-95618345D01*
X125785940Y-95599250D01*
X125763985Y-95581020D01*
X125733776Y-95567500D01*
X125722789Y-95563779D01*
X125701179Y-95535750D01*
X125692002Y-95521107D01*
X125657633Y-95504000D01*
X125642042Y-95500979D01*
X125609343Y-95474758D01*
X125609092Y-95474328D01*
X125582555Y-95437524D01*
X125529795Y-95372042D01*
X125452984Y-95280512D01*
X125354291Y-95165565D01*
X125331374Y-95137690D01*
X125298441Y-95090801D01*
X125285500Y-95061562D01*
X125281829Y-95048726D01*
X125253750Y-95024821D01*
X125238812Y-95017006D01*
X125222000Y-94995042D01*
X125219598Y-94987626D01*
X125197064Y-94953786D01*
X125158500Y-94907923D01*
X125142645Y-94889369D01*
X125108578Y-94838829D01*
X125095000Y-94800783D01*
X125089965Y-94780519D01*
X125063250Y-94763167D01*
X125048443Y-94759479D01*
X125031500Y-94731417D01*
X125029280Y-94716832D01*
X125011760Y-94699667D01*
X124997235Y-94691028D01*
X124978240Y-94656253D01*
X124974183Y-94646221D01*
X124944467Y-94599105D01*
X124900991Y-94547911D01*
X124875850Y-94519939D01*
X124822702Y-94451755D01*
X124773944Y-94379657D01*
X124745229Y-94335958D01*
X124711748Y-94292966D01*
X124691018Y-94276334D01*
X124682827Y-94273545D01*
X124671666Y-94246848D01*
X124668048Y-94231830D01*
X124639916Y-94205179D01*
X124625273Y-94196002D01*
X124608166Y-94161633D01*
X124605772Y-94147318D01*
X124580947Y-94113344D01*
X124579606Y-94112476D01*
X124547526Y-94083156D01*
X124509244Y-94038381D01*
X124464762Y-93980345D01*
X124406715Y-94056448D01*
X124381514Y-94087874D01*
X124322614Y-94155521D01*
X124261459Y-94220376D01*
X124230674Y-94252383D01*
X124160985Y-94329816D01*
X124100166Y-94403019D01*
X124069597Y-94441721D01*
X124025042Y-94496708D01*
X123994333Y-94532858D01*
X123979959Y-94548743D01*
X123938793Y-94594312D01*
X123881952Y-94657277D01*
X123817217Y-94729022D01*
X123773247Y-94776329D01*
X123714291Y-94835058D01*
X123668293Y-94875261D01*
X123642592Y-94890167D01*
X123630181Y-94892699D01*
X123613333Y-94916825D01*
X123607029Y-94931692D01*
X123572125Y-94965979D01*
X123516924Y-95005275D01*
X123453204Y-95042323D01*
X123392742Y-95069872D01*
X123347315Y-95080667D01*
X123323338Y-95086080D01*
X123282226Y-95112417D01*
X123281416Y-95113205D01*
X123238004Y-95135099D01*
X123179154Y-95144167D01*
X123174022Y-95144221D01*
X123122958Y-95150896D01*
X123094750Y-95165334D01*
X123094612Y-95165545D01*
X123067664Y-95176109D01*
X123010752Y-95183633D01*
X122936000Y-95186500D01*
X122934543Y-95186499D01*
X122860008Y-95183532D01*
X122803536Y-95175938D01*
X122777250Y-95165334D01*
X122768895Y-95156526D01*
X122732255Y-95144167D01*
X122725469Y-95143673D01*
X122674783Y-95122266D01*
X122615109Y-95076455D01*
X122557758Y-95016222D01*
X122514040Y-94951551D01*
X122491883Y-94887666D01*
X122475708Y-94792034D01*
X122468323Y-94682896D01*
X122470031Y-94573912D01*
X122481139Y-94478742D01*
X122501953Y-94411045D01*
X122523222Y-94352843D01*
X122533703Y-94283341D01*
X122539674Y-94236692D01*
X122563243Y-94164556D01*
X122597435Y-94099231D01*
X122634375Y-94058323D01*
X122645277Y-94049468D01*
X122660833Y-94020360D01*
X122668467Y-94004147D01*
X122704398Y-93956879D01*
X122768828Y-93882018D01*
X122860707Y-93780714D01*
X122978985Y-93654121D01*
X123122614Y-93503389D01*
X123290541Y-93329670D01*
X123337479Y-93280473D01*
X123392487Y-93219936D01*
X123430079Y-93174904D01*
X123444000Y-93152595D01*
X123447567Y-93143751D01*
X123475750Y-93133334D01*
X123490320Y-93131229D01*
X123507500Y-93114580D01*
X123508610Y-93110846D01*
X123529248Y-93080904D01*
X123570585Y-93031680D01*
X123625571Y-92971705D01*
X123638638Y-92957823D01*
X123694783Y-92894757D01*
X123737995Y-92840859D01*
X123759808Y-92806547D01*
X123763956Y-92789469D01*
X123759401Y-92728234D01*
X123736301Y-92660310D01*
X123700351Y-92605006D01*
X123699435Y-92604025D01*
X123670632Y-92562137D01*
X123642464Y-92505912D01*
X123640092Y-92500360D01*
X123614692Y-92451695D01*
X123592487Y-92424448D01*
X123578928Y-92404406D01*
X123571000Y-92359501D01*
X123566231Y-92325918D01*
X123551260Y-92307834D01*
X123535722Y-92297616D01*
X123516717Y-92261196D01*
X123503180Y-92229605D01*
X123472957Y-92185600D01*
X123455728Y-92158461D01*
X123444000Y-92106487D01*
X123439848Y-92072701D01*
X123425025Y-92044605D01*
X123417085Y-92036851D01*
X123391008Y-91999150D01*
X123359708Y-91943967D01*
X123354090Y-91933929D01*
X123310653Y-91872897D01*
X123248624Y-91800981D01*
X123179476Y-91731696D01*
X123156250Y-91710059D01*
X123068315Y-91619910D01*
X123009315Y-91537863D01*
X122973818Y-91451659D01*
X122956385Y-91349041D01*
X122951583Y-91217750D01*
X122954481Y-91107275D01*
X122969279Y-90998546D01*
X123000798Y-90909295D01*
X123053653Y-90827346D01*
X123132458Y-90740522D01*
X123173466Y-90700927D01*
X123242079Y-90645000D01*
X123310920Y-90607750D01*
X123390459Y-90585588D01*
X123491168Y-90574924D01*
X123623519Y-90572167D01*
X123682900Y-90572299D01*
X152467587Y-114805050D02*
X152343150Y-114816971D01*
X152343150Y-114816971D02*
X152215756Y-114835447D01*
X152215756Y-114835447D02*
X152094559Y-114858735D01*
X152094559Y-114858735D02*
X151988709Y-114885087D01*
X151988709Y-114885087D02*
X151907358Y-114912759D01*
X151907358Y-114912759D02*
X151861308Y-114938499D01*
X151861308Y-114938499D02*
X151825049Y-114953112D01*
X151825049Y-114953112D02*
X151796562Y-114956167D01*
X151796562Y-114956167D02*
X151743993Y-114968799D01*
X151743993Y-114968799D02*
X151710837Y-114987244D01*
X151710837Y-114987244D02*
X151663059Y-115012291D01*
X151663059Y-115012291D02*
X151632044Y-115018994D01*
X151632044Y-115018994D02*
X151593587Y-115035212D01*
X151593587Y-115035212D02*
X151582154Y-115051417D01*
X151582154Y-115051417D02*
X151558553Y-115079490D01*
X151558553Y-115079490D02*
X151545960Y-115083167D01*
X151545960Y-115083167D02*
X151517070Y-115094779D01*
X151517070Y-115094779D02*
X151464369Y-115125235D01*
X151464369Y-115125235D02*
X151397900Y-115167962D01*
X151397900Y-115167962D02*
X151327706Y-115216387D01*
X151327706Y-115216387D02*
X151263831Y-115263938D01*
X151263831Y-115263938D02*
X151238689Y-115284250D01*
X151238689Y-115284250D02*
X151131369Y-115382381D01*
X151131369Y-115382381D02*
X151021347Y-115496796D01*
X151021347Y-115496796D02*
X150923005Y-115612008D01*
X150923005Y-115612008D02*
X150875056Y-115675834D01*
X150875056Y-115675834D02*
X150840600Y-115723979D01*
X150840600Y-115723979D02*
X150816626Y-115755724D01*
X150816626Y-115755724D02*
X150812500Y-115760516D01*
X150812500Y-115760516D02*
X150795755Y-115786197D01*
X150795755Y-115786197D02*
X150766040Y-115839521D01*
X150766040Y-115839521D02*
X150728986Y-115910105D01*
X150728986Y-115910105D02*
X150697768Y-115972167D01*
X150697768Y-115972167D02*
X150669732Y-116028663D01*
X150669732Y-116028663D02*
X150637657Y-116092807D01*
X150637657Y-116092807D02*
X150636259Y-116095591D01*
X150636259Y-116095591D02*
X150612370Y-116151930D01*
X150612370Y-116151930D02*
X150600438Y-116197214D01*
X150600438Y-116197214D02*
X150600160Y-116201424D01*
X150600160Y-116201424D02*
X150587344Y-116245746D01*
X150587344Y-116245746D02*
X150568410Y-116277837D01*
X150568410Y-116277837D02*
X150548099Y-116325426D01*
X150548099Y-116325426D02*
X150537457Y-116390719D01*
X150537457Y-116390719D02*
X150537014Y-116404837D01*
X150537014Y-116404837D02*
X150528949Y-116484024D01*
X150528949Y-116484024D02*
X150509601Y-116565429D01*
X150509601Y-116565429D02*
X150506194Y-116575417D01*
X150506194Y-116575417D02*
X150490376Y-116645947D01*
X150490376Y-116645947D02*
X150480134Y-116745866D01*
X150480134Y-116745866D02*
X150475468Y-116862598D01*
X150475468Y-116862598D02*
X150476378Y-116983566D01*
X150476378Y-116983566D02*
X150482863Y-117096194D01*
X150482863Y-117096194D02*
X150494924Y-117187906D01*
X150494924Y-117187906D02*
X150506194Y-117231584D01*
X150506194Y-117231584D02*
X150526651Y-117310259D01*
X150526651Y-117310259D02*
X150536789Y-117392044D01*
X150536789Y-117392044D02*
X150537014Y-117402163D01*
X150537014Y-117402163D02*
X150544759Y-117468065D01*
X150544759Y-117468065D02*
X150563486Y-117521576D01*
X150563486Y-117521576D02*
X150568410Y-117529163D01*
X150568410Y-117529163D02*
X150593382Y-117575788D01*
X150593382Y-117575788D02*
X150600160Y-117605576D01*
X150600160Y-117605576D02*
X150609804Y-117649297D01*
X150609804Y-117649297D02*
X150630758Y-117700826D01*
X150630758Y-117700826D02*
X150658475Y-117759019D01*
X150658475Y-117759019D02*
X150690760Y-117830379D01*
X150690760Y-117830379D02*
X150699550Y-117850466D01*
X150699550Y-117850466D02*
X150725749Y-117903782D01*
X150725749Y-117903782D02*
X150747584Y-117936051D01*
X150747584Y-117936051D02*
X150754291Y-117940424D01*
X150754291Y-117940424D02*
X150768541Y-117957808D01*
X150768541Y-117957808D02*
X150770166Y-117971296D01*
X150770166Y-117971296D02*
X150784705Y-118011973D01*
X150784705Y-118011973D02*
X150824575Y-118075032D01*
X150824575Y-118075032D02*
X150884155Y-118153972D01*
X150884155Y-118153972D02*
X150957824Y-118242294D01*
X150957824Y-118242294D02*
X151039962Y-118333498D01*
X151039962Y-118333498D02*
X151124949Y-118421083D01*
X151124949Y-118421083D02*
X151207164Y-118498551D01*
X151207164Y-118498551D02*
X151274473Y-118554500D01*
X151274473Y-118554500D02*
X151331467Y-118598681D01*
X151331467Y-118598681D02*
X151381817Y-118638999D01*
X151381817Y-118638999D02*
X151388416Y-118644459D01*
X151388416Y-118644459D02*
X151427438Y-118671989D01*
X151427438Y-118671989D02*
X151450922Y-118681500D01*
X151450922Y-118681500D02*
X151477191Y-118693018D01*
X151477191Y-118693018D02*
X151524362Y-118722441D01*
X151524362Y-118722441D02*
X151556692Y-118745000D01*
X151556692Y-118745000D02*
X151612600Y-118781642D01*
X151612600Y-118781642D02*
X151657851Y-118804583D01*
X151657851Y-118804583D02*
X151673213Y-118808500D01*
X151673213Y-118808500D02*
X151715607Y-118818215D01*
X151715607Y-118818215D02*
X151738829Y-118828641D01*
X151738829Y-118828641D02*
X151886467Y-118894367D01*
X151886467Y-118894367D02*
X152058458Y-118942140D01*
X152058458Y-118942140D02*
X152258188Y-118972402D01*
X152258188Y-118972402D02*
X152489042Y-118985600D01*
X152489042Y-118985600D02*
X152754408Y-118982178D01*
X152754408Y-118982178D02*
X152865666Y-118976573D01*
X152865666Y-118976573D02*
X153037527Y-118959371D01*
X153037527Y-118959371D02*
X153173705Y-118929922D01*
X153173705Y-118929922D02*
X153214916Y-118916174D01*
X153214916Y-118916174D02*
X153289796Y-118889298D01*
X153289796Y-118889298D02*
X153354909Y-118867565D01*
X153354909Y-118867565D02*
X153389541Y-118857440D01*
X153389541Y-118857440D02*
X153426621Y-118841456D01*
X153426621Y-118841456D02*
X153437166Y-118827199D01*
X153437166Y-118827199D02*
X153454703Y-118811432D01*
X153454703Y-118811432D02*
X153474953Y-118808500D01*
X153474953Y-118808500D02*
X153507234Y-118797439D01*
X153507234Y-118797439D02*
X153565779Y-118767456D01*
X153565779Y-118767456D02*
X153641785Y-118723349D01*
X153641785Y-118723349D02*
X153713078Y-118678643D01*
X153713078Y-118678643D02*
X153882101Y-118555764D01*
X153882101Y-118555764D02*
X154043695Y-118413212D01*
X154043695Y-118413212D02*
X154190366Y-118259067D01*
X154190366Y-118259067D02*
X154314624Y-118101409D01*
X154314624Y-118101409D02*
X154408974Y-117948319D01*
X154408974Y-117948319D02*
X154429785Y-117905681D01*
X154429785Y-117905681D02*
X154455204Y-117863933D01*
X154455204Y-117863933D02*
X154473028Y-117846224D01*
X154473028Y-117846224D02*
X154492199Y-117815482D01*
X154492199Y-117815482D02*
X154495500Y-117792966D01*
X154495500Y-117792966D02*
X154504731Y-117748078D01*
X154504731Y-117748078D02*
X154527309Y-117690314D01*
X154527309Y-117690314D02*
X154530831Y-117683091D01*
X154530831Y-117683091D02*
X154559687Y-117625138D01*
X154559687Y-117625138D02*
X154582838Y-117578037D01*
X154582838Y-117578037D02*
X154584456Y-117574694D01*
X154584456Y-117574694D02*
X154599148Y-117532597D01*
X154599148Y-117532597D02*
X154616355Y-117467187D01*
X154616355Y-117467187D02*
X154625343Y-117426528D01*
X154625343Y-117426528D02*
X154642610Y-117343002D01*
X154642610Y-117343002D02*
X154659929Y-117260376D01*
X154659929Y-117260376D02*
X154666046Y-117231584D01*
X154666046Y-117231584D02*
X154673444Y-117175630D01*
X154673444Y-117175630D02*
X154679383Y-117090055D01*
X154679383Y-117090055D02*
X154683161Y-116987562D01*
X154683161Y-116987562D02*
X154684156Y-116903500D01*
X154684156Y-116903500D02*
X154682567Y-116796628D01*
X154682567Y-116796628D02*
X154678265Y-116696698D01*
X154678265Y-116696698D02*
X154671954Y-116616416D01*
X154671954Y-116616416D02*
X154666046Y-116575417D01*
X154666046Y-116575417D02*
X154650568Y-116502112D01*
X154650568Y-116502112D02*
X154632553Y-116415509D01*
X154632553Y-116415509D02*
X154625343Y-116380473D01*
X154625343Y-116380473D02*
X154608878Y-116309976D01*
X154608878Y-116309976D02*
X154591914Y-116252349D01*
X154591914Y-116252349D02*
X154583990Y-116232306D01*
X154583990Y-116232306D02*
X154563075Y-116187522D01*
X154563075Y-116187522D02*
X154536683Y-116127998D01*
X154536683Y-116127998D02*
X154533375Y-116120334D01*
X154533375Y-116120334D02*
X154495224Y-116035213D01*
X154495224Y-116035213D02*
X154452822Y-115946120D01*
X154452822Y-115946120D02*
X154413182Y-115867400D01*
X154413182Y-115867400D02*
X154383578Y-115813828D01*
X154383578Y-115813828D02*
X154332250Y-115737118D01*
X154332250Y-115737118D02*
X154267176Y-115650342D01*
X154267176Y-115650342D02*
X154193986Y-115559846D01*
X154193986Y-115559846D02*
X154118310Y-115471978D01*
X154118310Y-115471978D02*
X154045776Y-115393086D01*
X154045776Y-115393086D02*
X153982014Y-115329518D01*
X153982014Y-115329518D02*
X153932654Y-115287620D01*
X153932654Y-115287620D02*
X153904526Y-115273667D01*
X153904526Y-115273667D02*
X153882609Y-115259806D01*
X153882609Y-115259806D02*
X153881666Y-115254316D01*
X153881666Y-115254316D02*
X153862890Y-115231540D01*
X153862890Y-115231540D02*
X153806793Y-115189686D01*
X153806793Y-115189686D02*
X153713721Y-115128996D01*
X153713721Y-115128996D02*
X153617083Y-115069585D01*
X153617083Y-115069585D02*
X153544524Y-115029873D01*
X153544524Y-115029873D02*
X153467312Y-114993967D01*
X153467312Y-114993967D02*
X153398804Y-114967535D01*
X153398804Y-114967535D02*
X153352361Y-114956246D01*
X153352361Y-114956246D02*
X153349809Y-114956167D01*
X153349809Y-114956167D02*
X153316903Y-114946767D01*
X153316903Y-114946767D02*
X153310166Y-114935000D01*
X153310166Y-114935000D02*
X153292689Y-114916987D01*
X153292689Y-114916987D02*
X153273125Y-114913703D01*
X153273125Y-114913703D02*
X153228576Y-114904109D01*
X153228576Y-114904109D02*
X153175025Y-114881730D01*
X153175025Y-114881730D02*
X153128827Y-114866733D01*
X153128827Y-114866733D02*
X153050686Y-114850609D01*
X153050686Y-114850609D02*
X152950918Y-114834751D01*
X152950918Y-114834751D02*
X152839838Y-114820551D01*
X152839838Y-114820551D02*
X152727762Y-114809400D01*
X152727762Y-114809400D02*
X152625005Y-114802691D01*
X152625005Y-114802691D02*
X152579916Y-114801432D01*
X152579916Y-114801432D02*
X152467587Y-114805050D01*
X152467587Y-114805050D02*
X152467587Y-114805050D01*
G36*
X152625005Y-114802691D02*
G01*
X152727762Y-114809400D01*
X152839838Y-114820551D01*
X152950918Y-114834751D01*
X153050686Y-114850609D01*
X153128827Y-114866733D01*
X153175025Y-114881730D01*
X153228576Y-114904109D01*
X153273125Y-114913703D01*
X153292689Y-114916987D01*
X153310166Y-114935000D01*
X153316903Y-114946767D01*
X153349809Y-114956167D01*
X153352361Y-114956246D01*
X153398804Y-114967535D01*
X153467312Y-114993967D01*
X153544524Y-115029873D01*
X153617083Y-115069585D01*
X153713721Y-115128996D01*
X153806793Y-115189686D01*
X153862890Y-115231540D01*
X153881666Y-115254316D01*
X153882609Y-115259806D01*
X153904526Y-115273667D01*
X153932654Y-115287620D01*
X153982014Y-115329518D01*
X154045776Y-115393086D01*
X154118310Y-115471978D01*
X154193986Y-115559846D01*
X154267176Y-115650342D01*
X154332250Y-115737118D01*
X154383578Y-115813828D01*
X154413182Y-115867400D01*
X154452822Y-115946120D01*
X154495224Y-116035213D01*
X154533375Y-116120334D01*
X154536683Y-116127998D01*
X154563075Y-116187522D01*
X154583990Y-116232306D01*
X154591914Y-116252349D01*
X154608878Y-116309976D01*
X154625343Y-116380473D01*
X154632553Y-116415509D01*
X154650568Y-116502112D01*
X154666046Y-116575417D01*
X154671954Y-116616416D01*
X154678265Y-116696698D01*
X154682567Y-116796628D01*
X154684156Y-116903500D01*
X154683161Y-116987562D01*
X154679383Y-117090055D01*
X154673444Y-117175630D01*
X154666046Y-117231584D01*
X154659929Y-117260376D01*
X154642610Y-117343002D01*
X154625343Y-117426528D01*
X154616355Y-117467187D01*
X154599148Y-117532597D01*
X154584456Y-117574694D01*
X154582838Y-117578037D01*
X154559687Y-117625138D01*
X154530831Y-117683091D01*
X154527309Y-117690314D01*
X154504731Y-117748078D01*
X154495500Y-117792966D01*
X154492199Y-117815482D01*
X154473028Y-117846224D01*
X154455204Y-117863933D01*
X154429785Y-117905681D01*
X154408974Y-117948319D01*
X154314624Y-118101409D01*
X154190366Y-118259067D01*
X154043695Y-118413212D01*
X153882101Y-118555764D01*
X153713078Y-118678643D01*
X153641785Y-118723349D01*
X153565779Y-118767456D01*
X153507234Y-118797439D01*
X153474953Y-118808500D01*
X153454703Y-118811432D01*
X153437166Y-118827199D01*
X153426621Y-118841456D01*
X153389541Y-118857440D01*
X153354909Y-118867565D01*
X153289796Y-118889298D01*
X153214916Y-118916174D01*
X153173705Y-118929922D01*
X153037527Y-118959371D01*
X152865666Y-118976573D01*
X152754408Y-118982178D01*
X152489042Y-118985600D01*
X152258188Y-118972402D01*
X152058458Y-118942140D01*
X151886467Y-118894367D01*
X151738829Y-118828641D01*
X151715607Y-118818215D01*
X151673213Y-118808500D01*
X151657851Y-118804583D01*
X151612600Y-118781642D01*
X151556692Y-118745000D01*
X151524362Y-118722441D01*
X151477191Y-118693018D01*
X151450922Y-118681500D01*
X151427438Y-118671989D01*
X151388416Y-118644459D01*
X151381817Y-118638999D01*
X151331467Y-118598681D01*
X151274473Y-118554500D01*
X151207164Y-118498551D01*
X151124949Y-118421083D01*
X151039962Y-118333498D01*
X150957824Y-118242294D01*
X150884155Y-118153972D01*
X150824575Y-118075032D01*
X150784705Y-118011973D01*
X150770166Y-117971296D01*
X150768541Y-117957808D01*
X150754291Y-117940424D01*
X150747584Y-117936051D01*
X150725749Y-117903782D01*
X150699550Y-117850466D01*
X150690760Y-117830379D01*
X150658475Y-117759019D01*
X150630758Y-117700826D01*
X150609804Y-117649297D01*
X150600160Y-117605576D01*
X150593382Y-117575788D01*
X150568410Y-117529163D01*
X150563486Y-117521576D01*
X150544759Y-117468065D01*
X150537014Y-117402163D01*
X150536789Y-117392044D01*
X150526651Y-117310259D01*
X150506194Y-117231584D01*
X150494924Y-117187906D01*
X150482863Y-117096194D01*
X150476378Y-116983566D01*
X150475468Y-116862598D01*
X150480134Y-116745866D01*
X150490376Y-116645947D01*
X150506194Y-116575417D01*
X150509601Y-116565429D01*
X150528949Y-116484024D01*
X150537014Y-116404837D01*
X150537457Y-116390719D01*
X150548099Y-116325426D01*
X150568410Y-116277837D01*
X150587344Y-116245746D01*
X150600160Y-116201424D01*
X150600438Y-116197214D01*
X150612370Y-116151930D01*
X150636259Y-116095591D01*
X150637657Y-116092807D01*
X150669732Y-116028663D01*
X150697768Y-115972167D01*
X150728986Y-115910105D01*
X150766040Y-115839521D01*
X150795755Y-115786197D01*
X150812500Y-115760516D01*
X150816626Y-115755724D01*
X150840600Y-115723979D01*
X150875056Y-115675834D01*
X150923005Y-115612008D01*
X151021347Y-115496796D01*
X151131369Y-115382381D01*
X151238689Y-115284250D01*
X151263831Y-115263938D01*
X151327706Y-115216387D01*
X151397900Y-115167962D01*
X151464369Y-115125235D01*
X151517070Y-115094779D01*
X151545960Y-115083167D01*
X151558553Y-115079490D01*
X151582154Y-115051417D01*
X151593587Y-115035212D01*
X151632044Y-115018994D01*
X151663059Y-115012291D01*
X151710837Y-114987244D01*
X151743993Y-114968799D01*
X151796562Y-114956167D01*
X151825049Y-114953112D01*
X151861308Y-114938499D01*
X151907358Y-114912759D01*
X151988709Y-114885087D01*
X152094559Y-114858735D01*
X152215756Y-114835447D01*
X152343150Y-114816971D01*
X152467587Y-114805050D01*
X152579916Y-114801432D01*
X152625005Y-114802691D01*
G37*
X152625005Y-114802691D02*
X152727762Y-114809400D01*
X152839838Y-114820551D01*
X152950918Y-114834751D01*
X153050686Y-114850609D01*
X153128827Y-114866733D01*
X153175025Y-114881730D01*
X153228576Y-114904109D01*
X153273125Y-114913703D01*
X153292689Y-114916987D01*
X153310166Y-114935000D01*
X153316903Y-114946767D01*
X153349809Y-114956167D01*
X153352361Y-114956246D01*
X153398804Y-114967535D01*
X153467312Y-114993967D01*
X153544524Y-115029873D01*
X153617083Y-115069585D01*
X153713721Y-115128996D01*
X153806793Y-115189686D01*
X153862890Y-115231540D01*
X153881666Y-115254316D01*
X153882609Y-115259806D01*
X153904526Y-115273667D01*
X153932654Y-115287620D01*
X153982014Y-115329518D01*
X154045776Y-115393086D01*
X154118310Y-115471978D01*
X154193986Y-115559846D01*
X154267176Y-115650342D01*
X154332250Y-115737118D01*
X154383578Y-115813828D01*
X154413182Y-115867400D01*
X154452822Y-115946120D01*
X154495224Y-116035213D01*
X154533375Y-116120334D01*
X154536683Y-116127998D01*
X154563075Y-116187522D01*
X154583990Y-116232306D01*
X154591914Y-116252349D01*
X154608878Y-116309976D01*
X154625343Y-116380473D01*
X154632553Y-116415509D01*
X154650568Y-116502112D01*
X154666046Y-116575417D01*
X154671954Y-116616416D01*
X154678265Y-116696698D01*
X154682567Y-116796628D01*
X154684156Y-116903500D01*
X154683161Y-116987562D01*
X154679383Y-117090055D01*
X154673444Y-117175630D01*
X154666046Y-117231584D01*
X154659929Y-117260376D01*
X154642610Y-117343002D01*
X154625343Y-117426528D01*
X154616355Y-117467187D01*
X154599148Y-117532597D01*
X154584456Y-117574694D01*
X154582838Y-117578037D01*
X154559687Y-117625138D01*
X154530831Y-117683091D01*
X154527309Y-117690314D01*
X154504731Y-117748078D01*
X154495500Y-117792966D01*
X154492199Y-117815482D01*
X154473028Y-117846224D01*
X154455204Y-117863933D01*
X154429785Y-117905681D01*
X154408974Y-117948319D01*
X154314624Y-118101409D01*
X154190366Y-118259067D01*
X154043695Y-118413212D01*
X153882101Y-118555764D01*
X153713078Y-118678643D01*
X153641785Y-118723349D01*
X153565779Y-118767456D01*
X153507234Y-118797439D01*
X153474953Y-118808500D01*
X153454703Y-118811432D01*
X153437166Y-118827199D01*
X153426621Y-118841456D01*
X153389541Y-118857440D01*
X153354909Y-118867565D01*
X153289796Y-118889298D01*
X153214916Y-118916174D01*
X153173705Y-118929922D01*
X153037527Y-118959371D01*
X152865666Y-118976573D01*
X152754408Y-118982178D01*
X152489042Y-118985600D01*
X152258188Y-118972402D01*
X152058458Y-118942140D01*
X151886467Y-118894367D01*
X151738829Y-118828641D01*
X151715607Y-118818215D01*
X151673213Y-118808500D01*
X151657851Y-118804583D01*
X151612600Y-118781642D01*
X151556692Y-118745000D01*
X151524362Y-118722441D01*
X151477191Y-118693018D01*
X151450922Y-118681500D01*
X151427438Y-118671989D01*
X151388416Y-118644459D01*
X151381817Y-118638999D01*
X151331467Y-118598681D01*
X151274473Y-118554500D01*
X151207164Y-118498551D01*
X151124949Y-118421083D01*
X151039962Y-118333498D01*
X150957824Y-118242294D01*
X150884155Y-118153972D01*
X150824575Y-118075032D01*
X150784705Y-118011973D01*
X150770166Y-117971296D01*
X150768541Y-117957808D01*
X150754291Y-117940424D01*
X150747584Y-117936051D01*
X150725749Y-117903782D01*
X150699550Y-117850466D01*
X150690760Y-117830379D01*
X150658475Y-117759019D01*
X150630758Y-117700826D01*
X150609804Y-117649297D01*
X150600160Y-117605576D01*
X150593382Y-117575788D01*
X150568410Y-117529163D01*
X150563486Y-117521576D01*
X150544759Y-117468065D01*
X150537014Y-117402163D01*
X150536789Y-117392044D01*
X150526651Y-117310259D01*
X150506194Y-117231584D01*
X150494924Y-117187906D01*
X150482863Y-117096194D01*
X150476378Y-116983566D01*
X150475468Y-116862598D01*
X150480134Y-116745866D01*
X150490376Y-116645947D01*
X150506194Y-116575417D01*
X150509601Y-116565429D01*
X150528949Y-116484024D01*
X150537014Y-116404837D01*
X150537457Y-116390719D01*
X150548099Y-116325426D01*
X150568410Y-116277837D01*
X150587344Y-116245746D01*
X150600160Y-116201424D01*
X150600438Y-116197214D01*
X150612370Y-116151930D01*
X150636259Y-116095591D01*
X150637657Y-116092807D01*
X150669732Y-116028663D01*
X150697768Y-115972167D01*
X150728986Y-115910105D01*
X150766040Y-115839521D01*
X150795755Y-115786197D01*
X150812500Y-115760516D01*
X150816626Y-115755724D01*
X150840600Y-115723979D01*
X150875056Y-115675834D01*
X150923005Y-115612008D01*
X151021347Y-115496796D01*
X151131369Y-115382381D01*
X151238689Y-115284250D01*
X151263831Y-115263938D01*
X151327706Y-115216387D01*
X151397900Y-115167962D01*
X151464369Y-115125235D01*
X151517070Y-115094779D01*
X151545960Y-115083167D01*
X151558553Y-115079490D01*
X151582154Y-115051417D01*
X151593587Y-115035212D01*
X151632044Y-115018994D01*
X151663059Y-115012291D01*
X151710837Y-114987244D01*
X151743993Y-114968799D01*
X151796562Y-114956167D01*
X151825049Y-114953112D01*
X151861308Y-114938499D01*
X151907358Y-114912759D01*
X151988709Y-114885087D01*
X152094559Y-114858735D01*
X152215756Y-114835447D01*
X152343150Y-114816971D01*
X152467587Y-114805050D01*
X152579916Y-114801432D01*
X152625005Y-114802691D01*
%TD*%
M02*
