%TF.GenerationSoftware,KiCad,Pcbnew,(6.0.0-0)*%
%TF.CreationDate,2022-02-15T14:33:40+00:00*%
%TF.ProjectId,waffles-1u,77616666-6c65-4732-9d31-752e6b696361,rev?*%
%TF.SameCoordinates,Original*%
%TF.FileFunction,Profile,NP*%
%FSLAX46Y46*%
G04 Gerber Fmt 4.6, Leading zero omitted, Abs format (unit mm)*
G04 Created by KiCad (PCBNEW (6.0.0-0)) date 2022-02-15 14:33:40*
%MOMM*%
%LPD*%
G01*
G04 APERTURE LIST*
%TA.AperFunction,Profile*%
%ADD10C,0.100000*%
%TD*%
G04 APERTURE END LIST*
D10*
%TO.C,Ref\u002A\u002A*%
X156148400Y-120414500D02*
X156282700Y-120494800D01*
X155188300Y-89762600D02*
X154984200Y-89722410D01*
X156873200Y-121213700D02*
X156925800Y-121360700D01*
X121246510Y-121072600D02*
X121313210Y-121213700D01*
X154418500Y-89443490D02*
X154261200Y-89304940D01*
X155805800Y-89722410D02*
X155601700Y-89762600D01*
X155601700Y-89762600D02*
X155395000Y-89776000D01*
X156528800Y-89304940D02*
X156371500Y-89443490D01*
X121220640Y-88976000D02*
X121105670Y-89148340D01*
X119676860Y-120233800D02*
X119835000Y-120226000D01*
X120300340Y-120295200D02*
X120447290Y-120347800D01*
X156526400Y-120694600D02*
X156632700Y-120812000D01*
X153826000Y-121512400D02*
X153864200Y-121360700D01*
X156665700Y-89148340D02*
X156528800Y-89304940D01*
X118858490Y-89443490D02*
X118701150Y-89304940D01*
X118304160Y-121360700D02*
X118356790Y-121213700D01*
X155395000Y-120226000D02*
X155553100Y-120233800D01*
X153809100Y-88387940D02*
X153795000Y-88176000D01*
X120811510Y-89443490D02*
X120635000Y-89561640D01*
X153802800Y-121667900D02*
X153826000Y-121512400D01*
X121420930Y-88387940D02*
X121379620Y-88593470D01*
X156726200Y-120938300D02*
X156806500Y-121072600D01*
X119424230Y-89722410D02*
X119225580Y-89655420D01*
X155553100Y-120233800D02*
X155708600Y-120257000D01*
X154157300Y-120812000D02*
X154263600Y-120694600D01*
X153795000Y-121826000D02*
X153802800Y-121667900D01*
X120444420Y-89655420D02*
X120245770Y-89722410D01*
X121072660Y-120812000D02*
X121166180Y-120938300D01*
X118235000Y-88176000D02*
X118235000Y-85176000D01*
X119993140Y-120233800D02*
X120148600Y-120257000D01*
X119835000Y-89776000D02*
X119628270Y-89762600D01*
X118235000Y-85176000D02*
X112335000Y-85176000D01*
X120635000Y-89561640D02*
X120444420Y-89655420D01*
X153917600Y-88790270D02*
X153850400Y-88593470D01*
X121435000Y-85176000D02*
X153795000Y-85176000D01*
X154595000Y-89561640D02*
X154418500Y-89443490D01*
X120148600Y-120257000D02*
X120300340Y-120295200D01*
X120722680Y-120494800D02*
X120849010Y-120588300D01*
X162835000Y-124826000D02*
X156995000Y-124826000D01*
X154263600Y-120694600D02*
X154381000Y-120588300D01*
X156004400Y-89655420D02*
X155805800Y-89722410D01*
X154009400Y-88976000D02*
X153917600Y-88790270D01*
X154984200Y-89722410D02*
X154785600Y-89655420D01*
X155860300Y-120295200D02*
X156007300Y-120347800D01*
X155236900Y-120233800D02*
X155395000Y-120226000D01*
X153795000Y-85176000D02*
X153795000Y-88176000D01*
X118249070Y-88387940D02*
X118235000Y-88176000D01*
X154785600Y-89655420D02*
X154595000Y-89561640D01*
X121435000Y-88176000D02*
X121420930Y-88387940D01*
X121427170Y-121667900D02*
X121435000Y-121826000D01*
X119835000Y-120226000D02*
X119993140Y-120233800D01*
X118242830Y-121667900D02*
X118266030Y-121512400D01*
X119369660Y-120295200D02*
X119521400Y-120257000D01*
X120447290Y-120347800D02*
X120588420Y-120414500D01*
X154124300Y-89148340D02*
X154009400Y-88976000D01*
X120245770Y-89722410D02*
X120041730Y-89762600D01*
X155708600Y-120257000D02*
X155860300Y-120295200D01*
X121379620Y-88593470D02*
X121312400Y-88790270D01*
X154507300Y-120494800D02*
X154641600Y-120414500D01*
X121435000Y-121826000D02*
X121435000Y-124826000D01*
X162835000Y-85176000D02*
X162835000Y-124826000D01*
X156007300Y-120347800D02*
X156148400Y-120414500D01*
X120968850Y-89304940D02*
X120811510Y-89443490D01*
X156987200Y-121667900D02*
X156995000Y-121826000D01*
X118423490Y-121072600D02*
X118503820Y-120938300D01*
X156939600Y-88593470D02*
X156872400Y-88790270D01*
X118235000Y-124826000D02*
X118235000Y-121826000D01*
X119081580Y-120414500D02*
X119222710Y-120347800D01*
X154063800Y-120938300D02*
X154157300Y-120812000D01*
X119035000Y-89561640D02*
X118858490Y-89443490D01*
X121435000Y-88176000D02*
X121435000Y-85176000D01*
X119222710Y-120347800D02*
X119369660Y-120295200D01*
X118356790Y-121213700D02*
X118423490Y-121072600D01*
X155395000Y-89776000D02*
X155188300Y-89762600D01*
X156371500Y-89443490D02*
X156195000Y-89561640D01*
X121435000Y-124826000D02*
X153795000Y-124826000D01*
X154641600Y-120414500D02*
X154782700Y-120347800D01*
X155081400Y-120257000D02*
X155236900Y-120233800D01*
X118290380Y-88593470D02*
X118249070Y-88387940D01*
X156925800Y-121360700D02*
X156964000Y-121512400D01*
X119225580Y-89655420D02*
X119035000Y-89561640D01*
X154782700Y-120347800D02*
X154929700Y-120295200D01*
X156995000Y-85176000D02*
X162835000Y-85176000D01*
X156282700Y-120494800D02*
X156409000Y-120588300D01*
X118947320Y-120494800D02*
X119081580Y-120414500D01*
X120041730Y-89762600D02*
X119835000Y-89776000D01*
X156632700Y-120812000D02*
X156726200Y-120938300D01*
X156995000Y-121826000D02*
X156995000Y-121826000D01*
X118597340Y-120812000D02*
X118703630Y-120694600D01*
X118266030Y-121512400D02*
X118304160Y-121360700D01*
X118449360Y-88976000D02*
X118357600Y-88790270D01*
X112335000Y-124826000D02*
X118235000Y-124826000D01*
X118357600Y-88790270D02*
X118290380Y-88593470D01*
X119628270Y-89762600D02*
X119424230Y-89722410D01*
X118564330Y-89148340D02*
X118449360Y-88976000D01*
X120966370Y-120694600D02*
X121072660Y-120812000D01*
X112335000Y-85176000D02*
X112335000Y-124826000D01*
X153850400Y-88593470D02*
X153809100Y-88387940D01*
X120588420Y-120414500D02*
X120722680Y-120494800D01*
X121313210Y-121213700D02*
X121365840Y-121360700D01*
X153795000Y-124826000D02*
X153795000Y-121826000D01*
X121105670Y-89148340D02*
X120968850Y-89304940D01*
X118701150Y-89304940D02*
X118564330Y-89148340D01*
X154381000Y-120588300D02*
X154507300Y-120494800D01*
X156872400Y-88790270D02*
X156780600Y-88976000D01*
X121166180Y-120938300D02*
X121246510Y-121072600D01*
X153916800Y-121213700D02*
X153983500Y-121072600D01*
X156409000Y-120588300D02*
X156526400Y-120694600D01*
X156995000Y-88176000D02*
X156995000Y-85176000D01*
X156995000Y-121826000D02*
X156995000Y-121826000D01*
X154261200Y-89304940D02*
X154124300Y-89148340D01*
X121312400Y-88790270D02*
X121220640Y-88976000D01*
X156964000Y-121512400D02*
X156987200Y-121667900D01*
X118503820Y-120938300D02*
X118597340Y-120812000D01*
X118820990Y-120588300D02*
X118947320Y-120494800D01*
X156195000Y-89561640D02*
X156004400Y-89655420D01*
X156780600Y-88976000D02*
X156665700Y-89148340D01*
X156980900Y-88387940D02*
X156939600Y-88593470D01*
X118703630Y-120694600D02*
X118820990Y-120588300D01*
X156806500Y-121072600D02*
X156873200Y-121213700D01*
X121403970Y-121512400D02*
X121427170Y-121667900D01*
X156995000Y-88176000D02*
X156980900Y-88387940D01*
X121365840Y-121360700D02*
X121403970Y-121512400D01*
X119521400Y-120257000D02*
X119676860Y-120233800D01*
X118235000Y-121826000D02*
X118242830Y-121667900D01*
X153864200Y-121360700D02*
X153916800Y-121213700D01*
X120849010Y-120588300D02*
X120966370Y-120694600D01*
X156995000Y-124826000D02*
X156995000Y-121826000D01*
X153983500Y-121072600D02*
X154063800Y-120938300D01*
X154929700Y-120295200D02*
X155081400Y-120257000D01*
%TD*%
M02*
